G75*
%MOIN*%
%OFA0B0*%
%FSLAX24Y24*%
%IPPOS*%
%LPD*%
%AMOC8*
5,1,8,0,0,1.08239X$1,22.5*
%
%ADD10C,0.0000*%
%ADD11R,0.2047X0.2047*%
%ADD12C,0.0118*%
%ADD13R,0.0433X0.0394*%
%ADD14R,0.0394X0.0433*%
%ADD15R,0.0315X0.0315*%
%ADD16R,0.0173X0.0311*%
%ADD17C,0.1100*%
%ADD18R,0.1500X0.0760*%
%ADD19R,0.0394X0.0591*%
%ADD20C,0.0050*%
%ADD21R,0.0295X0.0106*%
%ADD22R,0.0106X0.0295*%
D10*
X000150Y000150D02*
X000150Y013930D01*
X013930Y013930D01*
X013930Y000150D01*
X000150Y000150D01*
X012237Y012788D02*
X012239Y012835D01*
X012245Y012881D01*
X012255Y012927D01*
X012268Y012972D01*
X012286Y013015D01*
X012307Y013057D01*
X012331Y013097D01*
X012359Y013134D01*
X012390Y013169D01*
X012424Y013202D01*
X012460Y013231D01*
X012499Y013257D01*
X012540Y013280D01*
X012583Y013299D01*
X012627Y013315D01*
X012672Y013327D01*
X012718Y013335D01*
X012765Y013339D01*
X012811Y013339D01*
X012858Y013335D01*
X012904Y013327D01*
X012949Y013315D01*
X012993Y013299D01*
X013036Y013280D01*
X013077Y013257D01*
X013116Y013231D01*
X013152Y013202D01*
X013186Y013169D01*
X013217Y013134D01*
X013245Y013097D01*
X013269Y013057D01*
X013290Y013015D01*
X013308Y012972D01*
X013321Y012927D01*
X013331Y012881D01*
X013337Y012835D01*
X013339Y012788D01*
X013337Y012741D01*
X013331Y012695D01*
X013321Y012649D01*
X013308Y012604D01*
X013290Y012561D01*
X013269Y012519D01*
X013245Y012479D01*
X013217Y012442D01*
X013186Y012407D01*
X013152Y012374D01*
X013116Y012345D01*
X013077Y012319D01*
X013036Y012296D01*
X012993Y012277D01*
X012949Y012261D01*
X012904Y012249D01*
X012858Y012241D01*
X012811Y012237D01*
X012765Y012237D01*
X012718Y012241D01*
X012672Y012249D01*
X012627Y012261D01*
X012583Y012277D01*
X012540Y012296D01*
X012499Y012319D01*
X012460Y012345D01*
X012424Y012374D01*
X012390Y012407D01*
X012359Y012442D01*
X012331Y012479D01*
X012307Y012519D01*
X012286Y012561D01*
X012268Y012604D01*
X012255Y012649D01*
X012245Y012695D01*
X012239Y012741D01*
X012237Y012788D01*
D11*
X008241Y002945D03*
D12*
X009480Y002847D02*
X009638Y002847D01*
X009638Y003044D02*
X009480Y003044D01*
X009480Y003241D02*
X009638Y003241D01*
X009638Y003437D02*
X009480Y003437D01*
X009480Y003634D02*
X009638Y003634D01*
X009638Y003831D02*
X009480Y003831D01*
X009480Y004028D02*
X009638Y004028D01*
X009323Y004185D02*
X009323Y004343D01*
X009126Y004343D02*
X009126Y004185D01*
X008930Y004185D02*
X008930Y004343D01*
X008733Y004343D02*
X008733Y004185D01*
X008536Y004185D02*
X008536Y004343D01*
X008339Y004343D02*
X008339Y004185D01*
X008142Y004185D02*
X008142Y004343D01*
X007945Y004343D02*
X007945Y004185D01*
X007748Y004185D02*
X007748Y004343D01*
X007552Y004343D02*
X007552Y004185D01*
X007355Y004185D02*
X007355Y004343D01*
X007158Y004343D02*
X007158Y004185D01*
X007001Y004028D02*
X006843Y004028D01*
X006843Y003831D02*
X007001Y003831D01*
X007001Y003634D02*
X006843Y003634D01*
X006843Y003437D02*
X007001Y003437D01*
X007001Y003241D02*
X006843Y003241D01*
X006843Y003044D02*
X007001Y003044D01*
X007001Y002847D02*
X006843Y002847D01*
X006843Y002650D02*
X007001Y002650D01*
X007001Y002453D02*
X006843Y002453D01*
X006843Y002256D02*
X007001Y002256D01*
X007001Y002059D02*
X006843Y002059D01*
X006843Y001863D02*
X007001Y001863D01*
X007158Y001705D02*
X007158Y001547D01*
X007355Y001547D02*
X007355Y001705D01*
X007552Y001705D02*
X007552Y001547D01*
X007748Y001547D02*
X007748Y001705D01*
X007945Y001705D02*
X007945Y001547D01*
X008142Y001547D02*
X008142Y001705D01*
X008339Y001705D02*
X008339Y001547D01*
X008536Y001547D02*
X008536Y001705D01*
X008733Y001705D02*
X008733Y001547D01*
X008930Y001547D02*
X008930Y001705D01*
X009126Y001705D02*
X009126Y001547D01*
X009323Y001547D02*
X009323Y001705D01*
X009480Y001863D02*
X009638Y001863D01*
X009638Y002059D02*
X009480Y002059D01*
X009480Y002256D02*
X009638Y002256D01*
X009638Y002453D02*
X009480Y002453D01*
X009480Y002650D02*
X009638Y002650D01*
D13*
X009500Y000996D03*
X008831Y000996D03*
X006430Y001292D03*
X005760Y001292D03*
X005819Y002552D03*
X005150Y002552D03*
X007394Y005307D03*
X008063Y005307D03*
X008733Y005307D03*
X009402Y005307D03*
D14*
X011095Y005111D03*
X011095Y004441D03*
X011075Y003811D03*
X011075Y003142D03*
X010957Y001666D03*
X010445Y001666D03*
X010445Y000996D03*
X010957Y000996D03*
X005701Y004638D03*
X005701Y005307D03*
X004638Y003910D03*
X004638Y003241D03*
X002040Y002020D03*
X002040Y001351D03*
X001292Y002650D03*
X001292Y003319D03*
X001292Y004067D03*
X001292Y004737D03*
D15*
X004540Y000760D03*
X005130Y000760D03*
D16*
X007622Y000526D03*
X007622Y000994D03*
X008386Y000994D03*
X008386Y000526D03*
D17*
X013339Y007040D03*
X007040Y013339D03*
D18*
X001804Y010662D03*
X011213Y007906D03*
D19*
X012433Y007315D03*
X000583Y011252D03*
D20*
X001008Y011257D02*
X010080Y011257D01*
X010129Y011305D02*
X001008Y011305D01*
X001008Y011354D02*
X010178Y011354D01*
X010227Y011402D02*
X001008Y011402D01*
X001008Y011451D02*
X010275Y011451D01*
X010324Y011499D02*
X001008Y011499D01*
X001008Y011548D02*
X010373Y011548D01*
X010422Y011596D02*
X001007Y011596D01*
X001007Y011645D02*
X010470Y011645D01*
X010519Y011693D02*
X001007Y011693D01*
X001007Y011742D02*
X010568Y011742D01*
X010617Y011790D02*
X001007Y011790D01*
X001007Y011839D02*
X010665Y011839D01*
X010714Y011887D02*
X001007Y011887D01*
X001006Y011936D02*
X010763Y011936D01*
X010812Y011984D02*
X001006Y011984D01*
X001006Y012033D02*
X010860Y012033D01*
X010909Y012081D02*
X001006Y012081D01*
X001006Y012130D02*
X010958Y012130D01*
X011006Y012178D02*
X001006Y012178D01*
X001006Y012227D02*
X011055Y012227D01*
X011104Y012275D02*
X001005Y012275D01*
X001005Y012324D02*
X011153Y012324D01*
X011201Y012372D02*
X001005Y012372D01*
X001005Y012421D02*
X011250Y012421D01*
X011299Y012469D02*
X001005Y012469D01*
X001005Y012518D02*
X011348Y012518D01*
X011396Y012566D02*
X001005Y012566D01*
X001004Y012615D02*
X011445Y012615D01*
X011469Y012638D02*
X009067Y010248D01*
X007782Y009756D01*
X006465Y009355D01*
X005124Y009047D01*
X003764Y008833D01*
X002392Y008715D01*
X001016Y008693D01*
X001004Y012638D01*
X011469Y012638D01*
X010032Y011208D02*
X001009Y011208D01*
X001009Y011160D02*
X009983Y011160D01*
X009934Y011111D02*
X001009Y011111D01*
X001009Y011063D02*
X009885Y011063D01*
X009837Y011014D02*
X001009Y011014D01*
X001009Y010966D02*
X009788Y010966D01*
X009739Y010917D02*
X001009Y010917D01*
X001010Y010869D02*
X009691Y010869D01*
X009642Y010820D02*
X001010Y010820D01*
X001010Y010772D02*
X009593Y010772D01*
X009544Y010723D02*
X001010Y010723D01*
X001010Y010675D02*
X009496Y010675D01*
X009447Y010626D02*
X001010Y010626D01*
X001011Y010578D02*
X009398Y010578D01*
X009349Y010529D02*
X001011Y010529D01*
X001011Y010481D02*
X009301Y010481D01*
X009252Y010432D02*
X001011Y010432D01*
X001011Y010384D02*
X009203Y010384D01*
X009154Y010335D02*
X001011Y010335D01*
X001011Y010287D02*
X009106Y010287D01*
X009040Y010238D02*
X001012Y010238D01*
X001012Y010190D02*
X008914Y010190D01*
X008787Y010141D02*
X001012Y010141D01*
X001012Y010093D02*
X008660Y010093D01*
X008534Y010044D02*
X001012Y010044D01*
X001012Y009996D02*
X008407Y009996D01*
X008280Y009947D02*
X001012Y009947D01*
X001013Y009899D02*
X008153Y009899D01*
X008027Y009850D02*
X001013Y009850D01*
X001013Y009802D02*
X007900Y009802D01*
X007771Y009753D02*
X001013Y009753D01*
X001013Y009705D02*
X007612Y009705D01*
X007453Y009656D02*
X001013Y009656D01*
X001013Y009608D02*
X007294Y009608D01*
X007135Y009559D02*
X001014Y009559D01*
X001014Y009511D02*
X006975Y009511D01*
X006816Y009462D02*
X001014Y009462D01*
X001014Y009414D02*
X006657Y009414D01*
X006498Y009365D02*
X001014Y009365D01*
X001014Y009317D02*
X006297Y009317D01*
X006415Y009171D02*
X012002Y009171D01*
X012003Y009123D02*
X006256Y009123D01*
X006097Y009074D02*
X012003Y009074D01*
X012003Y009026D02*
X005937Y009026D01*
X005778Y008977D02*
X012003Y008977D01*
X012003Y008929D02*
X005619Y008929D01*
X005460Y008880D02*
X012003Y008880D01*
X012004Y008832D02*
X005301Y008832D01*
X005235Y008811D02*
X006551Y009213D01*
X007893Y009521D01*
X009253Y009734D01*
X010624Y009852D01*
X012000Y009874D01*
X012012Y005930D01*
X001548Y005930D01*
X003949Y008319D01*
X005235Y008811D01*
X005160Y008783D02*
X012004Y008783D01*
X012004Y008735D02*
X005034Y008735D01*
X004907Y008686D02*
X012004Y008686D01*
X012004Y008638D02*
X004780Y008638D01*
X004654Y008589D02*
X012004Y008589D01*
X012004Y008541D02*
X004527Y008541D01*
X004400Y008492D02*
X012005Y008492D01*
X012005Y008444D02*
X004274Y008444D01*
X004147Y008395D02*
X012005Y008395D01*
X012005Y008347D02*
X004020Y008347D01*
X003928Y008298D02*
X012005Y008298D01*
X012005Y008250D02*
X003879Y008250D01*
X003830Y008201D02*
X012005Y008201D01*
X012006Y008153D02*
X003782Y008153D01*
X003733Y008104D02*
X012006Y008104D01*
X012006Y008056D02*
X003684Y008056D01*
X003635Y008007D02*
X012006Y008007D01*
X012006Y007959D02*
X003587Y007959D01*
X003538Y007910D02*
X012006Y007910D01*
X012006Y007862D02*
X003489Y007862D01*
X003440Y007813D02*
X012007Y007813D01*
X012007Y007765D02*
X003392Y007765D01*
X003343Y007716D02*
X012007Y007716D01*
X012007Y007668D02*
X003294Y007668D01*
X003245Y007619D02*
X012007Y007619D01*
X012007Y007571D02*
X003197Y007571D01*
X003148Y007522D02*
X012007Y007522D01*
X012008Y007474D02*
X003099Y007474D01*
X003051Y007425D02*
X012008Y007425D01*
X012008Y007377D02*
X003002Y007377D01*
X002953Y007328D02*
X012008Y007328D01*
X012008Y007280D02*
X002904Y007280D01*
X002856Y007231D02*
X012008Y007231D01*
X012008Y007183D02*
X002807Y007183D01*
X002758Y007134D02*
X012009Y007134D01*
X012009Y007086D02*
X002709Y007086D01*
X002661Y007037D02*
X012009Y007037D01*
X012009Y006989D02*
X002612Y006989D01*
X002563Y006940D02*
X012009Y006940D01*
X012009Y006892D02*
X002514Y006892D01*
X002466Y006843D02*
X012009Y006843D01*
X012010Y006795D02*
X002417Y006795D01*
X002368Y006746D02*
X012010Y006746D01*
X012010Y006698D02*
X002319Y006698D01*
X002271Y006649D02*
X012010Y006649D01*
X012010Y006601D02*
X002222Y006601D01*
X002173Y006552D02*
X012010Y006552D01*
X012010Y006504D02*
X002124Y006504D01*
X002076Y006455D02*
X012011Y006455D01*
X012011Y006407D02*
X002027Y006407D01*
X001978Y006358D02*
X012011Y006358D01*
X012011Y006310D02*
X001930Y006310D01*
X001881Y006261D02*
X012011Y006261D01*
X012011Y006213D02*
X001832Y006213D01*
X001783Y006164D02*
X012012Y006164D01*
X012012Y006116D02*
X001735Y006116D01*
X001686Y006067D02*
X012012Y006067D01*
X012012Y006019D02*
X001637Y006019D01*
X001588Y005970D02*
X012012Y005970D01*
X012002Y009220D02*
X006582Y009220D01*
X006793Y009268D02*
X012002Y009268D01*
X012002Y009317D02*
X007004Y009317D01*
X007215Y009365D02*
X012002Y009365D01*
X012002Y009414D02*
X007426Y009414D01*
X007637Y009462D02*
X012002Y009462D01*
X012001Y009511D02*
X007849Y009511D01*
X008137Y009559D02*
X012001Y009559D01*
X012001Y009608D02*
X008446Y009608D01*
X008754Y009656D02*
X012001Y009656D01*
X012001Y009705D02*
X009063Y009705D01*
X009470Y009753D02*
X012001Y009753D01*
X012001Y009802D02*
X010033Y009802D01*
X010596Y009850D02*
X012000Y009850D01*
X006086Y009268D02*
X001014Y009268D01*
X001015Y009220D02*
X005875Y009220D01*
X005664Y009171D02*
X001015Y009171D01*
X001015Y009123D02*
X005453Y009123D01*
X005241Y009074D02*
X001015Y009074D01*
X001015Y009026D02*
X004987Y009026D01*
X004678Y008977D02*
X001015Y008977D01*
X001015Y008929D02*
X004370Y008929D01*
X004061Y008880D02*
X001016Y008880D01*
X001016Y008832D02*
X003743Y008832D01*
X003179Y008783D02*
X001016Y008783D01*
X001016Y008735D02*
X002616Y008735D01*
D21*
X002172Y004325D03*
X002172Y004156D03*
X002172Y003987D03*
X002172Y003817D03*
X002172Y003648D03*
X002172Y003479D03*
X002172Y003309D03*
X002172Y003140D03*
X003246Y003140D03*
X003246Y003309D03*
X003246Y003479D03*
X003246Y003648D03*
X003246Y003817D03*
X003246Y003987D03*
X003246Y004156D03*
X003246Y004325D03*
D22*
X002963Y004369D03*
X002794Y004369D03*
X002624Y004369D03*
X002455Y004369D03*
X002455Y003097D03*
X002624Y003097D03*
X002794Y003097D03*
X002963Y003097D03*
M02*
