G75*
%MOIN*%
%OFA0B0*%
%FSLAX24Y24*%
%IPPOS*%
%LPD*%
%AMOC8*
5,1,8,0,0,1.08239X$1,22.5*
%
%ADD10R,0.2047X0.2047*%
%ADD11C,0.0118*%
%ADD12R,0.0433X0.0394*%
%ADD13R,0.0394X0.0433*%
%ADD14C,0.0740*%
%ADD15C,0.0500*%
%ADD16R,0.0500X0.0500*%
%ADD17R,0.0315X0.0315*%
%ADD18R,0.0173X0.0311*%
%ADD19C,0.1100*%
%ADD20R,0.1500X0.0760*%
%ADD21R,0.0394X0.0591*%
%ADD22C,0.0060*%
%ADD23R,0.0295X0.0106*%
%ADD24R,0.0106X0.0295*%
%ADD25C,0.0100*%
%ADD26C,0.0160*%
%ADD27C,0.0396*%
%ADD28C,0.0120*%
%ADD29C,0.0209*%
D10*
X008241Y002945D03*
D11*
X009480Y002847D02*
X009638Y002847D01*
X009638Y003044D02*
X009480Y003044D01*
X009480Y003241D02*
X009638Y003241D01*
X009638Y003437D02*
X009480Y003437D01*
X009480Y003634D02*
X009638Y003634D01*
X009638Y003831D02*
X009480Y003831D01*
X009480Y004028D02*
X009638Y004028D01*
X009323Y004185D02*
X009323Y004343D01*
X009126Y004343D02*
X009126Y004185D01*
X008930Y004185D02*
X008930Y004343D01*
X008733Y004343D02*
X008733Y004185D01*
X008536Y004185D02*
X008536Y004343D01*
X008339Y004343D02*
X008339Y004185D01*
X008142Y004185D02*
X008142Y004343D01*
X007945Y004343D02*
X007945Y004185D01*
X007748Y004185D02*
X007748Y004343D01*
X007552Y004343D02*
X007552Y004185D01*
X007355Y004185D02*
X007355Y004343D01*
X007158Y004343D02*
X007158Y004185D01*
X007001Y004028D02*
X006843Y004028D01*
X006843Y003831D02*
X007001Y003831D01*
X007001Y003634D02*
X006843Y003634D01*
X006843Y003437D02*
X007001Y003437D01*
X007001Y003241D02*
X006843Y003241D01*
X006843Y003044D02*
X007001Y003044D01*
X007001Y002847D02*
X006843Y002847D01*
X006843Y002650D02*
X007001Y002650D01*
X007001Y002453D02*
X006843Y002453D01*
X006843Y002256D02*
X007001Y002256D01*
X007001Y002059D02*
X006843Y002059D01*
X006843Y001863D02*
X007001Y001863D01*
X007158Y001705D02*
X007158Y001547D01*
X007355Y001547D02*
X007355Y001705D01*
X007552Y001705D02*
X007552Y001547D01*
X007748Y001547D02*
X007748Y001705D01*
X007945Y001705D02*
X007945Y001547D01*
X008142Y001547D02*
X008142Y001705D01*
X008339Y001705D02*
X008339Y001547D01*
X008536Y001547D02*
X008536Y001705D01*
X008733Y001705D02*
X008733Y001547D01*
X008930Y001547D02*
X008930Y001705D01*
X009126Y001705D02*
X009126Y001547D01*
X009323Y001547D02*
X009323Y001705D01*
X009480Y001863D02*
X009638Y001863D01*
X009638Y002059D02*
X009480Y002059D01*
X009480Y002256D02*
X009638Y002256D01*
X009638Y002453D02*
X009480Y002453D01*
X009480Y002650D02*
X009638Y002650D01*
D12*
X009500Y000996D03*
X008831Y000996D03*
X006430Y001292D03*
X005760Y001292D03*
X005819Y002552D03*
X005150Y002552D03*
X007394Y005307D03*
X008063Y005307D03*
X008733Y005307D03*
X009402Y005307D03*
D13*
X011095Y005111D03*
X011095Y004441D03*
X011075Y003811D03*
X011075Y003142D03*
X010957Y001666D03*
X010445Y001666D03*
X010445Y000996D03*
X010957Y000996D03*
X005701Y004638D03*
X005701Y005307D03*
X004638Y003910D03*
X004638Y003241D03*
X002040Y002020D03*
X002040Y001351D03*
X001292Y002650D03*
X001292Y003319D03*
X001292Y004067D03*
X001292Y004737D03*
D14*
X012099Y004599D03*
X012099Y003595D03*
X013099Y003595D03*
X013099Y004599D03*
D15*
X012433Y002245D02*
X012926Y002158D01*
X013418Y002071D01*
X011882Y001115D02*
X011969Y000622D01*
X011882Y001115D02*
X011795Y001607D01*
D16*
G36*
X011680Y000826D02*
X011593Y001317D01*
X012084Y001404D01*
X012171Y000913D01*
X011680Y000826D01*
G37*
G36*
X013128Y001869D02*
X012637Y001956D01*
X012724Y002447D01*
X013215Y002360D01*
X013128Y001869D01*
G37*
D17*
X005130Y000760D03*
X004540Y000760D03*
D18*
X007622Y000526D03*
X007622Y000994D03*
X008386Y000994D03*
X008386Y000526D03*
D19*
X013339Y007040D03*
X007040Y013339D03*
D20*
X001804Y010662D03*
X011213Y007906D03*
D21*
X012433Y007315D03*
X000583Y011252D03*
D22*
X001016Y011265D02*
X010084Y011265D01*
X010142Y011324D02*
X001016Y011324D01*
X001016Y011382D02*
X010201Y011382D01*
X010259Y011441D02*
X001016Y011441D01*
X001016Y011499D02*
X010318Y011499D01*
X010376Y011558D02*
X001016Y011558D01*
X001016Y011616D02*
X010435Y011616D01*
X010493Y011675D02*
X001016Y011675D01*
X001016Y011733D02*
X010552Y011733D01*
X010610Y011792D02*
X001016Y011792D01*
X001016Y011850D02*
X010669Y011850D01*
X010727Y011909D02*
X001016Y011909D01*
X001016Y011967D02*
X010786Y011967D01*
X010844Y012026D02*
X001016Y012026D01*
X001016Y012084D02*
X010903Y012084D01*
X010961Y012143D02*
X001016Y012143D01*
X001016Y012201D02*
X011020Y012201D01*
X011078Y012260D02*
X001016Y012260D01*
X001016Y012318D02*
X011137Y012318D01*
X011195Y012377D02*
X001016Y012377D01*
X001016Y012435D02*
X011254Y012435D01*
X011312Y012494D02*
X001016Y012494D01*
X001016Y012552D02*
X011371Y012552D01*
X011429Y012611D02*
X001016Y012611D01*
X001016Y012630D02*
X001016Y008693D01*
X002392Y008715D01*
X003764Y008833D01*
X005124Y009047D01*
X006465Y009355D01*
X007782Y009756D01*
X009067Y010248D01*
X011449Y012630D01*
X001016Y012630D01*
X001016Y011207D02*
X010025Y011207D01*
X009967Y011148D02*
X001016Y011148D01*
X001016Y011090D02*
X009908Y011090D01*
X009850Y011031D02*
X001016Y011031D01*
X001016Y010973D02*
X009791Y010973D01*
X009733Y010914D02*
X001016Y010914D01*
X001016Y010856D02*
X009674Y010856D01*
X009616Y010797D02*
X001016Y010797D01*
X001016Y010739D02*
X009557Y010739D01*
X009499Y010680D02*
X001016Y010680D01*
X001016Y010622D02*
X009440Y010622D01*
X009382Y010563D02*
X001016Y010563D01*
X001016Y010505D02*
X009323Y010505D01*
X009265Y010446D02*
X001016Y010446D01*
X001016Y010388D02*
X009206Y010388D01*
X009148Y010329D02*
X001016Y010329D01*
X001016Y010271D02*
X009089Y010271D01*
X008972Y010212D02*
X001016Y010212D01*
X001016Y010154D02*
X008820Y010154D01*
X008667Y010095D02*
X001016Y010095D01*
X001016Y010037D02*
X008514Y010037D01*
X008361Y009978D02*
X001016Y009978D01*
X001016Y009920D02*
X008208Y009920D01*
X008056Y009861D02*
X001016Y009861D01*
X001016Y009803D02*
X007903Y009803D01*
X007742Y009744D02*
X001016Y009744D01*
X001016Y009686D02*
X007550Y009686D01*
X007358Y009627D02*
X001016Y009627D01*
X001016Y009569D02*
X007166Y009569D01*
X006974Y009510D02*
X001016Y009510D01*
X001016Y009452D02*
X006782Y009452D01*
X006828Y009276D02*
X012000Y009276D01*
X012000Y009218D02*
X006573Y009218D01*
X006551Y009213D02*
X007893Y009521D01*
X009253Y009734D01*
X010624Y009852D01*
X012000Y009874D01*
X012000Y005937D01*
X001567Y005937D01*
X003949Y008319D01*
X005235Y008811D01*
X006551Y009213D01*
X006376Y009159D02*
X012000Y009159D01*
X012000Y009101D02*
X006184Y009101D01*
X005992Y009042D02*
X012000Y009042D01*
X012000Y008984D02*
X005800Y008984D01*
X005866Y009218D02*
X001016Y009218D01*
X001016Y009276D02*
X006121Y009276D01*
X006375Y009335D02*
X001016Y009335D01*
X001016Y009393D02*
X006590Y009393D01*
X007082Y009335D02*
X012000Y009335D01*
X012000Y009393D02*
X007337Y009393D01*
X007592Y009452D02*
X012000Y009452D01*
X012000Y009510D02*
X007846Y009510D01*
X008197Y009569D02*
X012000Y009569D01*
X012000Y009627D02*
X008570Y009627D01*
X008942Y009686D02*
X012000Y009686D01*
X012000Y009744D02*
X009365Y009744D01*
X010045Y009803D02*
X012000Y009803D01*
X012000Y009861D02*
X011163Y009861D01*
X012000Y008925D02*
X005608Y008925D01*
X005415Y008867D02*
X012000Y008867D01*
X012000Y008808D02*
X005226Y008808D01*
X005073Y008750D02*
X012000Y008750D01*
X012000Y008691D02*
X004920Y008691D01*
X004767Y008633D02*
X012000Y008633D01*
X012000Y008574D02*
X004615Y008574D01*
X004462Y008516D02*
X012000Y008516D01*
X012000Y008457D02*
X004309Y008457D01*
X004156Y008399D02*
X012000Y008399D01*
X012000Y008340D02*
X004003Y008340D01*
X003911Y008282D02*
X012000Y008282D01*
X012000Y008223D02*
X003853Y008223D01*
X003794Y008165D02*
X012000Y008165D01*
X012000Y008106D02*
X003736Y008106D01*
X003677Y008048D02*
X012000Y008048D01*
X012000Y007989D02*
X003619Y007989D01*
X003560Y007931D02*
X012000Y007931D01*
X012000Y007872D02*
X003502Y007872D01*
X003443Y007814D02*
X012000Y007814D01*
X012000Y007755D02*
X003385Y007755D01*
X003326Y007697D02*
X012000Y007697D01*
X012000Y007638D02*
X003268Y007638D01*
X003209Y007580D02*
X012000Y007580D01*
X012000Y007521D02*
X003151Y007521D01*
X003092Y007463D02*
X012000Y007463D01*
X012000Y007404D02*
X003034Y007404D01*
X002975Y007346D02*
X012000Y007346D01*
X012000Y007287D02*
X002917Y007287D01*
X002858Y007229D02*
X012000Y007229D01*
X012000Y007170D02*
X002800Y007170D01*
X002741Y007112D02*
X012000Y007112D01*
X012000Y007053D02*
X002683Y007053D01*
X002624Y006995D02*
X012000Y006995D01*
X012000Y006936D02*
X002566Y006936D01*
X002507Y006878D02*
X012000Y006878D01*
X012000Y006819D02*
X002449Y006819D01*
X002390Y006761D02*
X012000Y006761D01*
X012000Y006702D02*
X002332Y006702D01*
X002273Y006644D02*
X012000Y006644D01*
X012000Y006585D02*
X002215Y006585D01*
X002156Y006527D02*
X012000Y006527D01*
X012000Y006468D02*
X002098Y006468D01*
X002039Y006410D02*
X012000Y006410D01*
X012000Y006351D02*
X001981Y006351D01*
X001922Y006293D02*
X012000Y006293D01*
X012000Y006234D02*
X001864Y006234D01*
X001805Y006176D02*
X012000Y006176D01*
X012000Y006117D02*
X001747Y006117D01*
X001688Y006059D02*
X012000Y006059D01*
X012000Y006000D02*
X001630Y006000D01*
X001571Y005942D02*
X012000Y005942D01*
X005611Y009159D02*
X001016Y009159D01*
X001016Y009101D02*
X005357Y009101D01*
X005092Y009042D02*
X001016Y009042D01*
X001016Y008984D02*
X004720Y008984D01*
X004347Y008925D02*
X001016Y008925D01*
X001016Y008867D02*
X003975Y008867D01*
X003470Y008808D02*
X001016Y008808D01*
X001016Y008750D02*
X002790Y008750D01*
D23*
X003246Y004325D03*
X003246Y004156D03*
X003246Y003987D03*
X003246Y003817D03*
X003246Y003648D03*
X003246Y003479D03*
X003246Y003309D03*
X003246Y003140D03*
X002172Y003140D03*
X002172Y003309D03*
X002172Y003479D03*
X002172Y003648D03*
X002172Y003817D03*
X002172Y003987D03*
X002172Y004156D03*
X002172Y004325D03*
D24*
X002455Y004369D03*
X002624Y004369D03*
X002794Y004369D03*
X002963Y004369D03*
X002963Y003097D03*
X002794Y003097D03*
X002624Y003097D03*
X002455Y003097D03*
D25*
X000400Y005662D02*
X000400Y000400D01*
X006984Y000400D01*
X006975Y000409D01*
X006929Y000522D01*
X006929Y000644D01*
X006975Y000758D01*
X007062Y000844D01*
X007175Y000891D01*
X007298Y000891D01*
X007386Y000855D01*
X007386Y000994D01*
X007622Y000994D01*
X007622Y000994D01*
X007386Y000994D01*
X007386Y001170D01*
X007396Y001208D01*
X007416Y001242D01*
X007444Y001270D01*
X007478Y001290D01*
X007516Y001300D01*
X007622Y001300D01*
X007622Y000995D01*
X007622Y000995D01*
X007622Y001300D01*
X007729Y001300D01*
X007767Y001290D01*
X007801Y001270D01*
X007829Y001242D01*
X007849Y001208D01*
X007859Y001170D01*
X007859Y000994D01*
X007622Y000994D01*
X007622Y000994D01*
X007859Y000994D01*
X007859Y000819D01*
X007849Y000781D01*
X007829Y000747D01*
X007814Y000732D01*
X007819Y000727D01*
X007819Y000686D01*
X008190Y000686D01*
X008190Y000727D01*
X008223Y000760D01*
X008190Y000793D01*
X008190Y001196D01*
X008254Y001260D01*
X008518Y001260D01*
X008522Y001256D01*
X008569Y001303D01*
X009093Y001303D01*
X009158Y001239D01*
X009158Y000754D01*
X009093Y000690D01*
X008583Y000690D01*
X008583Y000400D01*
X009779Y000400D01*
X009771Y000409D01*
X009724Y000522D01*
X009724Y000644D01*
X009743Y000690D01*
X009238Y000690D01*
X009174Y000754D01*
X009174Y001239D01*
X009238Y001303D01*
X009399Y001303D01*
X009399Y001385D01*
X009393Y001379D01*
X009253Y001379D01*
X009225Y001407D01*
X009196Y001379D01*
X009056Y001379D01*
X009056Y001379D01*
X009010Y001353D01*
X008957Y001339D01*
X008930Y001339D01*
X008930Y001626D01*
X008930Y001626D01*
X008930Y001339D01*
X008902Y001339D01*
X008849Y001353D01*
X008803Y001379D01*
X008803Y001379D01*
X008663Y001379D01*
X008634Y001407D01*
X008606Y001379D01*
X008466Y001379D01*
X008437Y001407D01*
X008409Y001379D01*
X008269Y001379D01*
X008241Y001407D01*
X008212Y001379D01*
X008072Y001379D01*
X008044Y001407D01*
X008015Y001379D01*
X007875Y001379D01*
X007847Y001407D01*
X007818Y001379D01*
X007678Y001379D01*
X007650Y001407D01*
X007622Y001379D01*
X007515Y001379D01*
X007515Y001344D01*
X007397Y001225D01*
X007303Y001132D01*
X006756Y001132D01*
X006756Y001049D01*
X006692Y000985D01*
X006167Y000985D01*
X006103Y001049D01*
X006103Y001525D01*
X006087Y001525D01*
X006087Y001049D01*
X006022Y000985D01*
X005581Y000985D01*
X005398Y000801D01*
X005398Y000557D01*
X005333Y000493D01*
X004927Y000493D01*
X004863Y000557D01*
X004863Y000963D01*
X004927Y001028D01*
X005172Y001028D01*
X005434Y001290D01*
X005434Y001525D01*
X004350Y001525D01*
X004271Y001446D01*
X004277Y001432D01*
X004277Y001309D01*
X004230Y001196D01*
X004143Y001109D01*
X004030Y001062D01*
X003908Y001062D01*
X003794Y001109D01*
X003708Y001196D01*
X003661Y001309D01*
X003661Y001432D01*
X003708Y001545D01*
X003794Y001632D01*
X003908Y001679D01*
X004030Y001679D01*
X004045Y001673D01*
X004094Y001722D01*
X002997Y001722D01*
X002295Y002424D01*
X002295Y002900D01*
X002292Y002904D01*
X002292Y002937D01*
X002172Y002937D01*
X002172Y003140D01*
X002172Y003140D01*
X002172Y002937D01*
X002004Y002937D01*
X001966Y002947D01*
X001932Y002967D01*
X001904Y002995D01*
X001884Y003029D01*
X001874Y003067D01*
X001874Y003140D01*
X002172Y003140D01*
X002172Y003140D01*
X001874Y003140D01*
X001874Y003149D01*
X001599Y003149D01*
X001599Y003057D01*
X001534Y002993D01*
X001049Y002993D01*
X000985Y003057D01*
X000985Y003581D01*
X001049Y003646D01*
X001534Y003646D01*
X001599Y003581D01*
X001599Y003469D01*
X001874Y003469D01*
X001874Y003479D01*
X001928Y003479D01*
X001928Y003479D01*
X001874Y003479D01*
X001874Y003552D01*
X001877Y003563D01*
X001874Y003575D01*
X001874Y003648D01*
X001928Y003648D01*
X001928Y003648D01*
X001874Y003648D01*
X001874Y003657D01*
X001475Y003657D01*
X001392Y003741D01*
X001049Y003741D01*
X000985Y003805D01*
X000985Y004329D01*
X001049Y004394D01*
X001534Y004394D01*
X001599Y004329D01*
X001599Y003987D01*
X001608Y003977D01*
X001914Y003977D01*
X001914Y004409D01*
X001900Y004409D01*
X001786Y004456D01*
X001700Y004542D01*
X001686Y004577D01*
X001599Y004577D01*
X001599Y004475D01*
X001534Y004410D01*
X001049Y004410D01*
X000985Y004475D01*
X000985Y004999D01*
X001049Y005063D01*
X001534Y005063D01*
X001599Y004999D01*
X001599Y004897D01*
X001705Y004897D01*
X001786Y004978D01*
X001900Y005025D01*
X002022Y005025D01*
X002136Y004978D01*
X002222Y004891D01*
X002269Y004778D01*
X002269Y004656D01*
X002263Y004641D01*
X002317Y004587D01*
X002356Y004626D01*
X003062Y004626D01*
X003126Y004562D01*
X003126Y004488D01*
X003440Y004488D01*
X003504Y004424D01*
X003504Y003634D01*
X003514Y003624D01*
X003534Y003590D01*
X003544Y003552D01*
X003544Y003479D01*
X003490Y003479D01*
X003490Y003479D01*
X003544Y003479D01*
X003544Y003406D01*
X003541Y003394D01*
X003544Y003382D01*
X003544Y003309D01*
X003490Y003309D01*
X003490Y003309D01*
X003490Y003309D01*
X003544Y003309D01*
X003544Y003237D01*
X003541Y003225D01*
X003544Y003213D01*
X003544Y003140D01*
X003490Y003140D01*
X003490Y003140D01*
X003544Y003140D01*
X003544Y003067D01*
X003534Y003029D01*
X003514Y002995D01*
X003486Y002967D01*
X003452Y002947D01*
X003414Y002937D01*
X003246Y002937D01*
X003246Y003140D01*
X003246Y003140D01*
X003246Y003309D01*
X003246Y003309D01*
X003246Y003276D01*
X003246Y003140D01*
X003246Y003140D01*
X002963Y003140D01*
X002963Y003140D01*
X002963Y003140D01*
X002963Y003140D01*
X002963Y003097D01*
X002963Y003140D02*
X002963Y003140D01*
X002808Y003354D02*
X002818Y003365D01*
X002852Y003384D01*
X002890Y003394D01*
X002952Y003394D01*
X002949Y003406D01*
X002949Y003479D01*
X003003Y003479D01*
X003003Y003479D01*
X002949Y003479D01*
X002949Y003552D01*
X002959Y003590D01*
X002979Y003624D01*
X002989Y003634D01*
X002989Y004111D01*
X002429Y004111D01*
X002429Y003803D01*
X002439Y003793D01*
X002459Y003759D01*
X002469Y003721D01*
X002469Y003648D01*
X002415Y003648D01*
X002469Y003648D01*
X002469Y003575D01*
X002466Y003563D01*
X002469Y003552D01*
X002469Y003479D01*
X002415Y003479D01*
X002415Y003479D01*
X002469Y003479D01*
X002469Y003406D01*
X002459Y003368D01*
X002451Y003354D01*
X002469Y003354D01*
X002479Y003365D01*
X002513Y003384D01*
X002552Y003394D01*
X002624Y003394D01*
X002624Y003097D01*
X002624Y003097D01*
X002624Y003097D01*
X002624Y002799D01*
X002615Y002799D01*
X002615Y002557D01*
X003130Y002042D01*
X006029Y002042D01*
X006599Y002613D01*
X006636Y002613D01*
X006634Y002622D01*
X006634Y002650D01*
X006922Y002650D01*
X006922Y002650D01*
X006634Y002650D01*
X006634Y002678D01*
X006636Y002687D01*
X006181Y002687D01*
X006146Y002652D01*
X006146Y002309D01*
X006081Y002245D01*
X005557Y002245D01*
X005493Y002309D01*
X005493Y002794D01*
X005557Y002858D01*
X005900Y002858D01*
X005954Y002913D01*
X005915Y002913D01*
X005802Y002960D01*
X005716Y003046D01*
X005669Y003160D01*
X005669Y003282D01*
X005716Y003395D01*
X005802Y003482D01*
X005915Y003529D01*
X006010Y003529D01*
X005984Y003593D01*
X005984Y003715D01*
X006031Y003828D01*
X006117Y003915D01*
X006230Y003962D01*
X006353Y003962D01*
X006466Y003915D01*
X006553Y003828D01*
X006600Y003715D01*
X006600Y003593D01*
X006594Y003578D01*
X006674Y003498D01*
X006674Y003507D01*
X006702Y003536D01*
X006674Y003564D01*
X006674Y003704D01*
X006702Y003733D01*
X006674Y003761D01*
X006674Y003901D01*
X006702Y003930D01*
X006674Y003958D01*
X006674Y004098D01*
X006773Y004197D01*
X006989Y004197D01*
X006989Y004413D01*
X007088Y004512D01*
X007228Y004512D01*
X007256Y004484D01*
X007257Y004484D01*
X007256Y004484D02*
X007285Y004512D01*
X007425Y004512D01*
X007453Y004484D01*
X007454Y004484D01*
X007453Y004484D02*
X007482Y004512D01*
X007622Y004512D01*
X007622Y004511D01*
X007668Y004538D01*
X007721Y004552D01*
X007748Y004552D01*
X007748Y004264D01*
X007748Y004264D01*
X007748Y004552D01*
X007776Y004552D01*
X007829Y004538D01*
X007875Y004511D01*
X007875Y004512D01*
X008015Y004512D01*
X008044Y004484D01*
X008043Y004484D01*
X008044Y004484D02*
X008072Y004512D01*
X008212Y004512D01*
X008241Y004484D01*
X008240Y004484D01*
X008241Y004484D02*
X008269Y004512D01*
X008409Y004512D01*
X008410Y004511D01*
X008455Y004538D01*
X008508Y004552D01*
X008536Y004552D01*
X008536Y004264D01*
X008536Y004264D01*
X008536Y004552D01*
X008563Y004552D01*
X008573Y004549D01*
X008573Y005001D01*
X008471Y005001D01*
X008406Y005065D01*
X008406Y005147D01*
X008390Y005147D01*
X008390Y005065D01*
X008325Y005001D01*
X007983Y005001D01*
X007500Y004518D01*
X006913Y004518D01*
X006907Y004503D01*
X006821Y004416D01*
X006707Y004369D01*
X006585Y004369D01*
X006472Y004416D01*
X006385Y004503D01*
X006338Y004616D01*
X006338Y004739D01*
X006385Y004852D01*
X006472Y004939D01*
X006585Y004986D01*
X006707Y004986D01*
X006821Y004939D01*
X006907Y004852D01*
X006913Y004838D01*
X007367Y004838D01*
X007530Y005001D01*
X007132Y005001D01*
X007072Y005061D01*
X007057Y005046D01*
X006944Y004999D01*
X006821Y004999D01*
X006708Y005046D01*
X006621Y005133D01*
X006615Y005147D01*
X006008Y005147D01*
X006008Y005045D01*
X005957Y004994D01*
X005990Y004975D01*
X006018Y004947D01*
X006038Y004913D01*
X006048Y004874D01*
X006048Y004687D01*
X005750Y004687D01*
X005750Y004590D01*
X006048Y004590D01*
X006048Y004402D01*
X006038Y004364D01*
X006018Y004330D01*
X005990Y004302D01*
X005956Y004282D01*
X005918Y004272D01*
X005750Y004272D01*
X005750Y004590D01*
X005653Y004590D01*
X005653Y004272D01*
X005485Y004272D01*
X005446Y004282D01*
X005412Y004302D01*
X005384Y004330D01*
X005365Y004364D01*
X005354Y004402D01*
X005354Y004590D01*
X005653Y004590D01*
X005653Y004687D01*
X005354Y004687D01*
X005354Y004874D01*
X005365Y004913D01*
X005384Y004947D01*
X005412Y004975D01*
X005446Y004994D01*
X005394Y005045D01*
X005394Y005570D01*
X005459Y005634D01*
X005944Y005634D01*
X006008Y005570D01*
X006008Y005467D01*
X006615Y005467D01*
X006621Y005482D01*
X006708Y005569D01*
X006821Y005616D01*
X006944Y005616D01*
X007057Y005569D01*
X007072Y005554D01*
X007132Y005614D01*
X007656Y005614D01*
X007721Y005550D01*
X007721Y005191D01*
X007737Y005207D01*
X007737Y005550D01*
X007801Y005614D01*
X008325Y005614D01*
X008390Y005550D01*
X008390Y005467D01*
X008406Y005467D01*
X008406Y005550D01*
X008471Y005614D01*
X008995Y005614D01*
X009046Y005563D01*
X009065Y005596D01*
X009093Y005624D01*
X009128Y005644D01*
X009166Y005654D01*
X009354Y005654D01*
X009354Y005356D01*
X009450Y005356D01*
X009450Y005654D01*
X009638Y005654D01*
X009676Y005644D01*
X009711Y005624D01*
X009739Y005596D01*
X009758Y005562D01*
X009769Y005524D01*
X009769Y005356D01*
X009450Y005356D01*
X009450Y005259D01*
X009450Y004961D01*
X009638Y004961D01*
X009676Y004971D01*
X009711Y004991D01*
X009739Y005019D01*
X009758Y005053D01*
X009769Y005091D01*
X009769Y005259D01*
X009450Y005259D01*
X009354Y005259D01*
X009354Y004961D01*
X009166Y004961D01*
X009128Y004971D01*
X009093Y004991D01*
X009065Y005019D01*
X009046Y005052D01*
X008995Y005001D01*
X008893Y005001D01*
X008893Y004591D01*
X008966Y004665D01*
X009060Y004759D01*
X009528Y004759D01*
X009534Y004773D01*
X009621Y004860D01*
X009734Y004907D01*
X009857Y004907D01*
X009970Y004860D01*
X010057Y004773D01*
X010104Y004660D01*
X010104Y004538D01*
X010057Y004424D01*
X009970Y004338D01*
X009857Y004291D01*
X009734Y004291D01*
X009621Y004338D01*
X009534Y004424D01*
X009528Y004439D01*
X009466Y004439D01*
X009492Y004413D01*
X009492Y004197D01*
X009708Y004197D01*
X009807Y004098D01*
X009807Y003958D01*
X009779Y003930D01*
X009807Y003901D01*
X009807Y003761D01*
X009807Y003761D01*
X009833Y003715D01*
X009847Y003662D01*
X009847Y003634D01*
X009559Y003634D01*
X009559Y003634D01*
X009847Y003634D01*
X009847Y003607D01*
X009845Y003597D01*
X009949Y003597D01*
X010788Y004375D01*
X010788Y004703D01*
X010852Y004768D01*
X011337Y004768D01*
X011402Y004703D01*
X011402Y004179D01*
X011367Y004145D01*
X011392Y004120D01*
X011412Y004086D01*
X011422Y004048D01*
X011422Y003860D01*
X011124Y003860D01*
X011124Y003763D01*
X011422Y003763D01*
X011422Y003575D01*
X011412Y003537D01*
X011392Y003503D01*
X011364Y003475D01*
X011331Y003456D01*
X011382Y003404D01*
X011382Y002908D01*
X011996Y002908D01*
X013680Y002908D01*
X013680Y002906D02*
X011998Y002906D01*
X011996Y002908D01*
X011929Y002748D02*
X012433Y002245D01*
X011929Y002748D02*
X009874Y002748D01*
X009776Y002847D01*
X009559Y002847D01*
X009559Y003044D02*
X009559Y003241D01*
X009973Y003241D01*
X010111Y003103D01*
X010150Y003142D01*
X011075Y003142D01*
X011382Y003105D02*
X013680Y003105D01*
X013680Y003007D02*
X011382Y003007D01*
X011382Y003204D02*
X011811Y003204D01*
X011827Y003188D02*
X011692Y003323D01*
X011619Y003499D01*
X011388Y003499D01*
X011382Y003401D02*
X011660Y003401D01*
X011619Y003499D02*
X011619Y003690D01*
X011692Y003867D01*
X011827Y004002D01*
X012003Y004075D01*
X012194Y004075D01*
X012371Y004002D01*
X012506Y003867D01*
X012579Y003690D01*
X012579Y003499D01*
X012619Y003499D01*
X012692Y003323D01*
X012827Y003188D01*
X013003Y003115D01*
X013194Y003115D01*
X013371Y003188D01*
X013506Y003323D01*
X013579Y003499D01*
X013680Y003499D01*
X013680Y003401D02*
X013538Y003401D01*
X013579Y003499D02*
X013579Y003690D01*
X013506Y003867D01*
X013371Y004002D01*
X013194Y004075D01*
X013003Y004075D01*
X012827Y004002D01*
X012692Y003867D01*
X012619Y003690D01*
X012619Y003499D01*
X012579Y003499D02*
X012506Y003323D01*
X012371Y003188D01*
X012194Y003115D01*
X012003Y003115D01*
X011827Y003188D01*
X011713Y003302D02*
X011382Y003302D01*
X011422Y003598D02*
X011619Y003598D01*
X011621Y003696D02*
X011422Y003696D01*
X011422Y003893D02*
X011718Y003893D01*
X011662Y003795D02*
X011124Y003795D01*
X011027Y003795D02*
X010633Y003795D01*
X010728Y003763D02*
X010728Y003575D01*
X010739Y003537D01*
X010758Y003503D01*
X010786Y003475D01*
X010820Y003456D01*
X010768Y003404D01*
X010768Y003302D01*
X010347Y003302D01*
X010285Y003364D01*
X010204Y003397D01*
X010728Y003883D01*
X010728Y003860D01*
X011027Y003860D01*
X011027Y003763D01*
X010728Y003763D01*
X010728Y003696D02*
X010526Y003696D01*
X010420Y003598D02*
X010728Y003598D01*
X010762Y003499D02*
X010314Y003499D01*
X010208Y003401D02*
X010768Y003401D01*
X010268Y003893D02*
X009807Y003893D01*
X009807Y003795D02*
X010162Y003795D01*
X010056Y003696D02*
X009838Y003696D01*
X009845Y003598D02*
X009950Y003598D01*
X010012Y003437D02*
X011095Y004441D01*
X011402Y004484D02*
X011627Y004484D01*
X011619Y004503D02*
X011692Y004327D01*
X011827Y004192D01*
X012003Y004119D01*
X012194Y004119D01*
X012371Y004192D01*
X012506Y004327D01*
X012579Y004503D01*
X012579Y004694D01*
X012506Y004871D01*
X012371Y005006D01*
X012194Y005079D01*
X012003Y005079D01*
X011827Y005006D01*
X011692Y004871D01*
X011619Y004694D01*
X011619Y004503D01*
X011619Y004583D02*
X011402Y004583D01*
X011402Y004681D02*
X011619Y004681D01*
X011654Y004780D02*
X010051Y004780D01*
X010095Y004681D02*
X010788Y004681D01*
X010788Y004583D02*
X010104Y004583D01*
X010082Y004484D02*
X010788Y004484D01*
X010788Y004386D02*
X010018Y004386D01*
X009796Y004599D02*
X009126Y004599D01*
X008930Y004402D01*
X008930Y004264D01*
X008733Y004264D02*
X008733Y005307D01*
X008063Y005307D01*
X007433Y004678D01*
X006646Y004678D01*
X006881Y004878D02*
X007408Y004878D01*
X007506Y004977D02*
X006729Y004977D01*
X006679Y005075D02*
X006008Y005075D01*
X005987Y004977D02*
X006563Y004977D01*
X006411Y004878D02*
X006047Y004878D01*
X006048Y004780D02*
X006355Y004780D01*
X006338Y004681D02*
X005750Y004681D01*
X005653Y004681D02*
X002269Y004681D01*
X002269Y004780D02*
X005354Y004780D01*
X005355Y004878D02*
X002228Y004878D01*
X002137Y004977D02*
X005415Y004977D01*
X005394Y005075D02*
X000400Y005075D01*
X000400Y004977D02*
X000985Y004977D01*
X000985Y004878D02*
X000400Y004878D01*
X000400Y004780D02*
X000985Y004780D01*
X000985Y004681D02*
X000400Y004681D01*
X000400Y004583D02*
X000985Y004583D01*
X000985Y004484D02*
X000400Y004484D01*
X000400Y004386D02*
X001041Y004386D01*
X000985Y004287D02*
X000400Y004287D01*
X000400Y004189D02*
X000985Y004189D01*
X000985Y004090D02*
X000400Y004090D01*
X000400Y003992D02*
X000985Y003992D01*
X000985Y003893D02*
X000400Y003893D01*
X000400Y003795D02*
X000996Y003795D01*
X001001Y003598D02*
X000400Y003598D01*
X000400Y003696D02*
X001437Y003696D01*
X001542Y003817D02*
X001292Y004067D01*
X001542Y003817D02*
X002172Y003817D01*
X002172Y003987D02*
X002172Y004156D01*
X002172Y004325D01*
X002455Y004325D01*
X002455Y004369D01*
X002624Y004369D01*
X002794Y004369D01*
X002963Y004369D01*
X003105Y004583D02*
X005354Y004583D01*
X005354Y004484D02*
X003444Y004484D01*
X003504Y004386D02*
X005359Y004386D01*
X005438Y004287D02*
X003504Y004287D01*
X003504Y004189D02*
X004304Y004189D01*
X004302Y004184D02*
X004291Y004146D01*
X004291Y003958D01*
X004590Y003958D01*
X004590Y003861D01*
X004291Y003861D01*
X004291Y003674D01*
X004302Y003635D01*
X004321Y003601D01*
X004349Y003573D01*
X004383Y003554D01*
X004331Y003503D01*
X004331Y002978D01*
X004396Y002914D01*
X004478Y002914D01*
X004478Y002819D01*
X004464Y002813D01*
X004377Y002726D01*
X004330Y002613D01*
X004330Y002490D01*
X004377Y002377D01*
X004464Y002290D01*
X004577Y002243D01*
X004699Y002243D01*
X004813Y002290D01*
X004827Y002305D01*
X004888Y002245D01*
X005412Y002245D01*
X005477Y002309D01*
X005477Y002794D01*
X005412Y002858D01*
X004888Y002858D01*
X004827Y002798D01*
X004813Y002813D01*
X004798Y002819D01*
X004798Y002914D01*
X004881Y002914D01*
X004945Y002978D01*
X004945Y003503D01*
X004894Y003554D01*
X004927Y003573D01*
X004955Y003601D01*
X004975Y003635D01*
X004985Y003674D01*
X004985Y003861D01*
X004687Y003861D01*
X004687Y003958D01*
X004985Y003958D01*
X004985Y004146D01*
X004975Y004184D01*
X004955Y004218D01*
X004927Y004246D01*
X004893Y004266D01*
X004855Y004276D01*
X004687Y004276D01*
X004687Y003958D01*
X004590Y003958D01*
X004590Y004276D01*
X004422Y004276D01*
X004383Y004266D01*
X004349Y004246D01*
X004321Y004218D01*
X004302Y004184D01*
X004291Y004090D02*
X003504Y004090D01*
X003504Y003992D02*
X004291Y003992D01*
X004291Y003795D02*
X003504Y003795D01*
X003504Y003893D02*
X004590Y003893D01*
X004687Y003893D02*
X006095Y003893D01*
X006016Y003795D02*
X004985Y003795D01*
X004985Y003696D02*
X005984Y003696D01*
X005984Y003598D02*
X004951Y003598D01*
X004945Y003499D02*
X005843Y003499D01*
X005721Y003401D02*
X004945Y003401D01*
X004945Y003302D02*
X005677Y003302D01*
X005669Y003204D02*
X004945Y003204D01*
X004945Y003105D02*
X005691Y003105D01*
X005755Y003007D02*
X004945Y003007D01*
X004798Y002908D02*
X005949Y002908D01*
X006115Y002847D02*
X005819Y002552D01*
X005493Y002514D02*
X005477Y002514D01*
X005477Y002416D02*
X005493Y002416D01*
X005493Y002317D02*
X005477Y002317D01*
X005477Y002613D02*
X005493Y002613D01*
X005493Y002711D02*
X005477Y002711D01*
X005461Y002810D02*
X005508Y002810D01*
X005150Y002552D02*
X004638Y002552D01*
X004638Y003241D01*
X004331Y003204D02*
X003544Y003204D01*
X003615Y003142D02*
X003615Y003140D01*
X003246Y003140D01*
X003246Y002937D01*
X003166Y002937D01*
X003166Y002929D01*
X003156Y002891D01*
X003136Y002857D01*
X003108Y002829D01*
X003074Y002809D01*
X003036Y002799D01*
X003003Y002799D01*
X003248Y002554D01*
X003702Y002554D01*
X003708Y002569D01*
X003794Y002655D01*
X003908Y002702D01*
X004030Y002702D01*
X004143Y002655D01*
X004230Y002569D01*
X004277Y002455D01*
X004277Y002333D01*
X004230Y002220D01*
X004143Y002133D01*
X004030Y002086D01*
X003908Y002086D01*
X003794Y002133D01*
X003708Y002220D01*
X003702Y002234D01*
X003115Y002234D01*
X003021Y002328D01*
X002634Y002716D01*
X002634Y002799D01*
X002624Y002799D01*
X002624Y003097D01*
X002630Y003097D01*
X002630Y002709D01*
X002638Y002711D02*
X002615Y002711D01*
X002615Y002613D02*
X002737Y002613D01*
X002658Y002514D02*
X002835Y002514D01*
X002756Y002416D02*
X002934Y002416D01*
X002855Y002317D02*
X003032Y002317D01*
X002953Y002219D02*
X003709Y002219D01*
X003825Y002120D02*
X003052Y002120D01*
X003063Y001882D02*
X002455Y002491D01*
X002455Y003097D01*
X002624Y003097D02*
X002624Y003394D01*
X002697Y003394D01*
X002735Y003384D01*
X002770Y003365D01*
X002780Y003354D01*
X002808Y003354D01*
X002950Y003401D02*
X002468Y003401D01*
X002469Y003499D02*
X002949Y003499D01*
X002964Y003598D02*
X002469Y003598D01*
X002415Y003648D02*
X002415Y003648D01*
X002469Y003696D02*
X002989Y003696D01*
X002989Y003795D02*
X002438Y003795D01*
X002429Y003893D02*
X002989Y003893D01*
X002989Y003992D02*
X002429Y003992D01*
X002429Y004090D02*
X002989Y004090D01*
X003504Y003696D02*
X004291Y003696D01*
X004325Y003598D02*
X003529Y003598D01*
X003544Y003499D02*
X004331Y003499D01*
X004331Y003401D02*
X003543Y003401D01*
X003544Y003302D02*
X004331Y003302D01*
X004331Y003105D02*
X003544Y003105D01*
X003521Y003007D02*
X004331Y003007D01*
X004478Y002908D02*
X003160Y002908D01*
X003074Y002810D02*
X004460Y002810D01*
X004371Y002711D02*
X003091Y002711D01*
X003189Y002613D02*
X003752Y002613D01*
X003969Y002394D02*
X003181Y002394D01*
X002794Y002782D01*
X002794Y003097D01*
X002631Y003097D02*
X002624Y003097D01*
X002631Y003097D01*
X002631Y003097D01*
X002624Y003097D02*
X002624Y003097D01*
X002624Y003105D02*
X002624Y003105D01*
X002624Y003007D02*
X002624Y003007D01*
X002624Y002908D02*
X002624Y002908D01*
X002624Y002810D02*
X002624Y002810D01*
X002295Y002810D02*
X001599Y002810D01*
X001599Y002908D02*
X002292Y002908D01*
X002172Y003007D02*
X002172Y003007D01*
X002172Y003105D02*
X002172Y003105D01*
X002172Y003309D02*
X001302Y003309D01*
X001292Y003319D01*
X001599Y003499D02*
X001874Y003499D01*
X001843Y003575D02*
X002172Y003575D01*
X002172Y003479D01*
X002172Y003479D01*
X002172Y003648D01*
X002172Y003648D01*
X002172Y003479D01*
X002172Y003499D02*
X002172Y003499D01*
X002172Y003598D02*
X002172Y003598D01*
X001874Y003598D02*
X001582Y003598D01*
X001599Y003992D02*
X001914Y003992D01*
X001914Y004090D02*
X001599Y004090D01*
X001599Y004189D02*
X001914Y004189D01*
X001914Y004287D02*
X001599Y004287D01*
X001542Y004386D02*
X001914Y004386D01*
X001758Y004484D02*
X001599Y004484D01*
X001292Y004737D02*
X001941Y004737D01*
X001961Y004717D01*
X002172Y004506D01*
X002172Y004325D01*
X001785Y004977D02*
X001599Y004977D01*
X000400Y005174D02*
X005394Y005174D01*
X005394Y005272D02*
X000400Y005272D01*
X000400Y005371D02*
X005394Y005371D01*
X005394Y005469D02*
X000400Y005469D01*
X000400Y005568D02*
X005394Y005568D01*
X005701Y005307D02*
X006882Y005307D01*
X007394Y005307D01*
X007721Y005272D02*
X007737Y005272D01*
X007737Y005371D02*
X007721Y005371D01*
X007721Y005469D02*
X007737Y005469D01*
X007754Y005568D02*
X007703Y005568D01*
X007085Y005568D02*
X007058Y005568D01*
X006707Y005568D02*
X006008Y005568D01*
X006008Y005469D02*
X006616Y005469D01*
X006352Y004583D02*
X006048Y004583D01*
X006048Y004484D02*
X006404Y004484D01*
X006546Y004386D02*
X006044Y004386D01*
X005965Y004287D02*
X006989Y004287D01*
X006989Y004386D02*
X006746Y004386D01*
X006888Y004484D02*
X007060Y004484D01*
X006764Y004189D02*
X004972Y004189D01*
X004985Y004090D02*
X006674Y004090D01*
X006674Y003992D02*
X004985Y003992D01*
X004687Y003992D02*
X004590Y003992D01*
X004590Y004090D02*
X004687Y004090D01*
X004687Y004189D02*
X004590Y004189D01*
X005653Y004287D02*
X005750Y004287D01*
X005750Y004386D02*
X005653Y004386D01*
X005653Y004484D02*
X005750Y004484D01*
X005750Y004583D02*
X005653Y004583D01*
X006488Y003893D02*
X006674Y003893D01*
X006674Y003795D02*
X006567Y003795D01*
X006600Y003696D02*
X006674Y003696D01*
X006674Y003598D02*
X006600Y003598D01*
X006673Y003499D02*
X006674Y003499D01*
X006705Y003241D02*
X006292Y003654D01*
X006705Y003241D02*
X006922Y003241D01*
X006922Y003044D02*
X006154Y003044D01*
X005977Y003221D01*
X006115Y002847D02*
X006922Y002847D01*
X006922Y002453D02*
X006666Y002453D01*
X006095Y001882D01*
X003063Y001882D01*
X002993Y001726D02*
X002365Y001726D01*
X002357Y001711D02*
X002376Y001746D01*
X002387Y001784D01*
X002387Y001972D01*
X002088Y001972D01*
X002088Y002069D01*
X001991Y002069D01*
X001991Y002387D01*
X001823Y002387D01*
X001785Y002376D01*
X001751Y002357D01*
X001723Y002329D01*
X001703Y002295D01*
X001693Y002256D01*
X001693Y002069D01*
X001991Y002069D01*
X001991Y001972D01*
X001693Y001972D01*
X001693Y001784D01*
X001703Y001746D01*
X001723Y001711D01*
X001751Y001684D01*
X001784Y001664D01*
X001733Y001613D01*
X001733Y001089D01*
X001783Y001038D01*
X001779Y001033D01*
X001732Y000920D01*
X001732Y000797D01*
X001779Y000684D01*
X001865Y000597D01*
X001978Y000551D01*
X002101Y000551D01*
X002214Y000597D01*
X002301Y000684D01*
X002348Y000797D01*
X002348Y000920D01*
X002301Y001033D01*
X002296Y001038D01*
X002347Y001089D01*
X002347Y001613D01*
X002295Y001664D01*
X002329Y001684D01*
X002357Y001711D01*
X002332Y001628D02*
X003790Y001628D01*
X003701Y001529D02*
X002347Y001529D01*
X002347Y001431D02*
X003661Y001431D01*
X003661Y001332D02*
X002347Y001332D01*
X002347Y001234D02*
X003692Y001234D01*
X003769Y001135D02*
X002347Y001135D01*
X002298Y001037D02*
X003239Y001037D01*
X003243Y001041D02*
X003157Y000954D01*
X003110Y000841D01*
X003110Y000719D01*
X003157Y000605D01*
X003243Y000519D01*
X003356Y000472D01*
X003479Y000472D01*
X003592Y000519D01*
X003674Y000600D01*
X004272Y000600D01*
X004272Y000557D01*
X004337Y000493D01*
X004743Y000493D01*
X004807Y000557D01*
X004807Y000963D01*
X004743Y001028D01*
X004337Y001028D01*
X004272Y000963D01*
X004272Y000920D01*
X003693Y000920D01*
X003679Y000954D01*
X003592Y001041D01*
X003479Y001088D01*
X003356Y001088D01*
X003243Y001041D01*
X003150Y000938D02*
X002340Y000938D01*
X002348Y000840D02*
X003110Y000840D01*
X003110Y000741D02*
X002325Y000741D01*
X002259Y000643D02*
X003141Y000643D01*
X003218Y000544D02*
X000400Y000544D01*
X000400Y000446D02*
X006960Y000446D01*
X006929Y000544D02*
X005385Y000544D01*
X005398Y000643D02*
X006929Y000643D01*
X006969Y000741D02*
X005398Y000741D01*
X005436Y000840D02*
X007057Y000840D01*
X007237Y000583D02*
X007294Y000526D01*
X007622Y000526D01*
X008386Y000526D01*
X008583Y000544D02*
X009724Y000544D01*
X009724Y000643D02*
X008583Y000643D01*
X008583Y000446D02*
X009755Y000446D01*
X010032Y000583D02*
X010307Y000583D01*
X010445Y000721D01*
X010445Y000996D01*
X010957Y000996D01*
X010957Y001666D02*
X010445Y001666D01*
X010111Y002000D01*
X010111Y002197D01*
X010052Y002256D01*
X009559Y002256D01*
X009559Y002453D01*
X009559Y002650D02*
X009697Y002650D01*
X009796Y002552D01*
X010851Y002552D01*
X011795Y001607D01*
X012386Y003204D02*
X012811Y003204D01*
X012713Y003302D02*
X012485Y003302D01*
X012538Y003401D02*
X012660Y003401D01*
X012619Y003598D02*
X012579Y003598D01*
X012576Y003696D02*
X012621Y003696D01*
X012662Y003795D02*
X012536Y003795D01*
X012480Y003893D02*
X012718Y003893D01*
X012817Y003992D02*
X012381Y003992D01*
X012363Y004189D02*
X012835Y004189D01*
X012827Y004192D02*
X013003Y004119D01*
X013194Y004119D01*
X013371Y004192D01*
X013506Y004327D01*
X013579Y004503D01*
X013579Y004694D01*
X013506Y004871D01*
X013371Y005006D01*
X013194Y005079D01*
X013003Y005079D01*
X012827Y005006D01*
X012692Y004871D01*
X012619Y004694D01*
X012619Y004503D01*
X012692Y004327D01*
X012827Y004192D01*
X012732Y004287D02*
X012466Y004287D01*
X012530Y004386D02*
X012668Y004386D01*
X012627Y004484D02*
X012571Y004484D01*
X012579Y004583D02*
X012619Y004583D01*
X012619Y004681D02*
X012579Y004681D01*
X012544Y004780D02*
X012654Y004780D01*
X012699Y004878D02*
X012498Y004878D01*
X012400Y004977D02*
X012798Y004977D01*
X012692Y005174D02*
X013680Y005174D01*
X013680Y005272D02*
X012834Y005272D01*
X012852Y005290D02*
X012899Y005404D01*
X012899Y005526D01*
X012852Y005639D01*
X012830Y005662D01*
X013680Y005662D01*
X013680Y002906D01*
X013680Y003204D02*
X013386Y003204D01*
X013485Y003302D02*
X013680Y003302D01*
X013680Y003598D02*
X013579Y003598D01*
X013576Y003696D02*
X013680Y003696D01*
X013680Y003795D02*
X013536Y003795D01*
X013480Y003893D02*
X013680Y003893D01*
X013680Y003992D02*
X013381Y003992D01*
X013363Y004189D02*
X013680Y004189D01*
X013680Y004287D02*
X013466Y004287D01*
X013530Y004386D02*
X013680Y004386D01*
X013680Y004484D02*
X013571Y004484D01*
X013579Y004583D02*
X013680Y004583D01*
X013680Y004681D02*
X013579Y004681D01*
X013544Y004780D02*
X013680Y004780D01*
X013680Y004878D02*
X013498Y004878D01*
X013400Y004977D02*
X013680Y004977D01*
X013680Y005075D02*
X013203Y005075D01*
X012994Y005075D02*
X012203Y005075D01*
X011994Y005075D02*
X011402Y005075D01*
X011402Y004977D02*
X011798Y004977D01*
X011699Y004878D02*
X011402Y004878D01*
X011402Y004849D02*
X011402Y005373D01*
X011337Y005437D01*
X010852Y005437D01*
X010788Y005373D01*
X010788Y005302D01*
X010718Y005372D01*
X010605Y005419D01*
X010482Y005419D01*
X010369Y005372D01*
X010282Y005285D01*
X010236Y005172D01*
X010236Y005049D01*
X010282Y004936D01*
X010369Y004849D01*
X010482Y004803D01*
X010605Y004803D01*
X010718Y004849D01*
X010788Y004919D01*
X010788Y004849D01*
X010852Y004784D01*
X011337Y004784D01*
X011402Y004849D01*
X011402Y005174D02*
X012489Y005174D01*
X012530Y005157D02*
X012652Y005157D01*
X012765Y005204D01*
X012852Y005290D01*
X012885Y005371D02*
X013680Y005371D01*
X013680Y005469D02*
X012899Y005469D01*
X012882Y005568D02*
X013680Y005568D01*
X012530Y005157D02*
X012416Y005204D01*
X012330Y005290D01*
X012283Y005404D01*
X012283Y005504D01*
X012243Y005544D01*
X012243Y005662D01*
X000400Y005662D01*
X000400Y003499D02*
X000985Y003499D01*
X000985Y003401D02*
X000400Y003401D01*
X000400Y003302D02*
X000985Y003302D01*
X000985Y003204D02*
X000400Y003204D01*
X000400Y003105D02*
X000985Y003105D01*
X001036Y003007D02*
X000400Y003007D01*
X000400Y002908D02*
X000985Y002908D01*
X000985Y002912D02*
X000985Y002388D01*
X001035Y002337D01*
X001031Y002332D01*
X000984Y002219D01*
X000984Y002097D01*
X001031Y001983D01*
X001117Y001897D01*
X001230Y001850D01*
X001353Y001850D01*
X001466Y001897D01*
X001553Y001983D01*
X001600Y002097D01*
X001600Y002219D01*
X001553Y002332D01*
X001548Y002337D01*
X001599Y002388D01*
X001599Y002912D01*
X001534Y002977D01*
X001049Y002977D01*
X000985Y002912D01*
X000985Y002810D02*
X000400Y002810D01*
X000400Y002711D02*
X000985Y002711D01*
X000985Y002613D02*
X000400Y002613D01*
X000400Y002514D02*
X000985Y002514D01*
X000985Y002416D02*
X000400Y002416D01*
X000400Y002317D02*
X001024Y002317D01*
X000984Y002219D02*
X000400Y002219D01*
X000400Y002120D02*
X000984Y002120D01*
X001015Y002022D02*
X000400Y002022D01*
X000400Y001923D02*
X001091Y001923D01*
X001292Y002158D02*
X001292Y002650D01*
X001599Y002613D02*
X002295Y002613D01*
X002295Y002711D02*
X001599Y002711D01*
X001599Y002514D02*
X002295Y002514D01*
X002304Y002416D02*
X001599Y002416D01*
X001559Y002317D02*
X001716Y002317D01*
X001693Y002219D02*
X001600Y002219D01*
X001600Y002120D02*
X001693Y002120D01*
X001569Y002022D02*
X001991Y002022D01*
X002088Y002022D02*
X002698Y002022D01*
X002599Y002120D02*
X002387Y002120D01*
X002387Y002069D02*
X002387Y002256D01*
X002376Y002295D01*
X002357Y002329D01*
X002329Y002357D01*
X002295Y002376D01*
X002256Y002387D01*
X002088Y002387D01*
X002088Y002069D01*
X002387Y002069D01*
X002387Y001923D02*
X002796Y001923D01*
X002895Y001825D02*
X002387Y001825D01*
X002387Y002219D02*
X002501Y002219D01*
X002402Y002317D02*
X002363Y002317D01*
X002088Y002317D02*
X001991Y002317D01*
X001991Y002219D02*
X002088Y002219D01*
X002088Y002120D02*
X001991Y002120D01*
X001693Y001923D02*
X001493Y001923D01*
X001693Y001825D02*
X000400Y001825D01*
X000400Y001726D02*
X001714Y001726D01*
X001748Y001628D02*
X000400Y001628D01*
X000400Y001529D02*
X001733Y001529D01*
X001733Y001431D02*
X000400Y001431D01*
X000400Y001332D02*
X001733Y001332D01*
X001733Y001234D02*
X000400Y001234D01*
X000400Y001135D02*
X001733Y001135D01*
X001782Y001037D02*
X000400Y001037D01*
X000400Y000938D02*
X001739Y000938D01*
X001732Y000840D02*
X000400Y000840D01*
X000400Y000741D02*
X001755Y000741D01*
X001820Y000643D02*
X000400Y000643D01*
X002040Y000859D02*
X002040Y001351D01*
X003418Y000780D02*
X003437Y000760D01*
X004540Y000760D01*
X004807Y000741D02*
X004863Y000741D01*
X004863Y000643D02*
X004807Y000643D01*
X004794Y000544D02*
X004876Y000544D01*
X004863Y000840D02*
X004807Y000840D01*
X004807Y000938D02*
X004863Y000938D01*
X005130Y000760D02*
X005662Y001292D01*
X005760Y001292D01*
X005434Y001332D02*
X004277Y001332D01*
X004277Y001431D02*
X005434Y001431D01*
X005377Y001234D02*
X004246Y001234D01*
X004169Y001135D02*
X005279Y001135D01*
X005180Y001037D02*
X003597Y001037D01*
X003686Y000938D02*
X004272Y000938D01*
X004285Y000544D02*
X003618Y000544D01*
X003969Y001370D02*
X004284Y001685D01*
X006174Y001685D01*
X006744Y002256D01*
X006922Y002256D01*
X006599Y002613D02*
X006146Y002613D01*
X006146Y002514D02*
X006500Y002514D01*
X006402Y002416D02*
X006146Y002416D01*
X006146Y002317D02*
X006303Y002317D01*
X006205Y002219D02*
X004229Y002219D01*
X004270Y002317D02*
X004437Y002317D01*
X004361Y002416D02*
X004277Y002416D01*
X004253Y002514D02*
X004330Y002514D01*
X004330Y002613D02*
X004186Y002613D01*
X004112Y002120D02*
X006106Y002120D01*
X006087Y001431D02*
X006103Y001431D01*
X006103Y001332D02*
X006087Y001332D01*
X006087Y001234D02*
X006103Y001234D01*
X006103Y001135D02*
X006087Y001135D01*
X006074Y001037D02*
X006116Y001037D01*
X006430Y001292D02*
X007237Y001292D01*
X007355Y001410D01*
X007355Y001626D01*
X007503Y001332D02*
X009399Y001332D01*
X009174Y001234D02*
X009158Y001234D01*
X009158Y001135D02*
X009174Y001135D01*
X009174Y001037D02*
X009158Y001037D01*
X009158Y000938D02*
X009174Y000938D01*
X009174Y000840D02*
X009158Y000840D01*
X009145Y000741D02*
X009187Y000741D01*
X009500Y000996D02*
X009559Y001056D01*
X009559Y001863D01*
X008930Y001529D02*
X008930Y001529D01*
X008930Y001431D02*
X008930Y001431D01*
X008831Y000996D02*
X008829Y000994D01*
X008386Y000994D01*
X008190Y001037D02*
X007859Y001037D01*
X007859Y001135D02*
X008190Y001135D01*
X008228Y001234D02*
X007834Y001234D01*
X007622Y001234D02*
X007622Y001234D01*
X007622Y001135D02*
X007622Y001135D01*
X007622Y001037D02*
X007622Y001037D01*
X007859Y000938D02*
X008190Y000938D01*
X008190Y000840D02*
X007859Y000840D01*
X007823Y000741D02*
X008204Y000741D01*
X007386Y000938D02*
X005534Y000938D01*
X006743Y001037D02*
X007386Y001037D01*
X007386Y001135D02*
X007306Y001135D01*
X007405Y001234D02*
X007411Y001234D01*
X008241Y002945D02*
X008339Y003201D01*
X008536Y004287D02*
X008536Y004287D01*
X008536Y004386D02*
X008536Y004386D01*
X008536Y004484D02*
X008536Y004484D01*
X008573Y004583D02*
X007565Y004583D01*
X007663Y004681D02*
X008573Y004681D01*
X008573Y004780D02*
X007762Y004780D01*
X007860Y004878D02*
X008573Y004878D01*
X008573Y004977D02*
X007959Y004977D01*
X008390Y005075D02*
X008406Y005075D01*
X008390Y005469D02*
X008406Y005469D01*
X008424Y005568D02*
X008372Y005568D01*
X008893Y004977D02*
X009118Y004977D01*
X008893Y004878D02*
X009665Y004878D01*
X009686Y004977D02*
X010266Y004977D01*
X010236Y005075D02*
X009764Y005075D01*
X009769Y005174D02*
X010236Y005174D01*
X010277Y005272D02*
X009450Y005272D01*
X009450Y005174D02*
X009354Y005174D01*
X009354Y005075D02*
X009450Y005075D01*
X009450Y004977D02*
X009354Y004977D01*
X009541Y004780D02*
X008893Y004780D01*
X008893Y004681D02*
X008982Y004681D01*
X009492Y004386D02*
X009573Y004386D01*
X009492Y004287D02*
X010693Y004287D01*
X010587Y004189D02*
X009717Y004189D01*
X009807Y004090D02*
X010481Y004090D01*
X010374Y003992D02*
X009807Y003992D01*
X010012Y003437D02*
X009559Y003437D01*
X009927Y004878D02*
X010341Y004878D01*
X010544Y005111D02*
X011095Y005111D01*
X011402Y005272D02*
X012348Y005272D01*
X012297Y005371D02*
X011402Y005371D01*
X010788Y005371D02*
X010720Y005371D01*
X010368Y005371D02*
X009769Y005371D01*
X009769Y005469D02*
X012283Y005469D01*
X012243Y005568D02*
X009755Y005568D01*
X009450Y005568D02*
X009354Y005568D01*
X009354Y005469D02*
X009450Y005469D01*
X009450Y005371D02*
X009354Y005371D01*
X009049Y005568D02*
X009042Y005568D01*
X007748Y004484D02*
X007748Y004484D01*
X007748Y004386D02*
X007748Y004386D01*
X007748Y004287D02*
X007748Y004287D01*
X010747Y004878D02*
X010788Y004878D01*
X011402Y004386D02*
X011668Y004386D01*
X011732Y004287D02*
X011402Y004287D01*
X011402Y004189D02*
X011835Y004189D01*
X011817Y003992D02*
X011422Y003992D01*
X011409Y004090D02*
X013680Y004090D01*
X004839Y002810D02*
X004816Y002810D01*
X003246Y003007D02*
X003246Y003007D01*
X003246Y003105D02*
X003246Y003105D01*
X003246Y003204D02*
X003246Y003204D01*
X003246Y003302D02*
X003246Y003302D01*
X003246Y003309D02*
X003246Y003479D01*
X003246Y003479D01*
X003246Y003309D01*
X003246Y003309D01*
X003246Y003401D02*
X003246Y003401D01*
X002624Y003302D02*
X002624Y003302D01*
X002624Y003204D02*
X002624Y003204D01*
X001897Y003007D02*
X001548Y003007D01*
X001599Y003105D02*
X001874Y003105D01*
D26*
X000662Y006764D02*
X000583Y006843D01*
X000583Y011252D01*
X000583Y012788D01*
X001134Y013339D01*
X007040Y013339D01*
X007040Y012276D02*
X005426Y010662D01*
X005544Y010544D01*
X005544Y010150D01*
X008103Y007591D01*
X010898Y007591D01*
X011449Y007591D01*
X012040Y008181D01*
X012985Y008181D01*
X013339Y007827D01*
X013339Y007040D01*
X012433Y007315D02*
X012433Y005622D01*
X012591Y005465D01*
X011449Y005662D02*
X011449Y007591D01*
X011213Y007906D02*
X010898Y007591D01*
X005426Y010662D02*
X001804Y010662D01*
X001882Y010662D01*
X001882Y007630D01*
D27*
X001882Y007630D03*
X000662Y006764D03*
X001961Y004717D03*
X003969Y002394D03*
X004638Y002552D03*
X003969Y001370D03*
X003418Y000780D03*
X002040Y000859D03*
X001292Y002158D03*
X005977Y003221D03*
X006292Y003654D03*
X006646Y004678D03*
X006882Y005307D03*
X008241Y002945D03*
X009796Y004599D03*
X010544Y005111D03*
X010111Y003103D03*
X010111Y002197D03*
X010032Y000583D03*
X007237Y000583D03*
X012591Y005465D03*
D28*
X012926Y002158D02*
X013418Y002071D01*
X011795Y001607D02*
X011882Y001115D01*
X008339Y003201D02*
X008339Y004264D01*
D29*
X011795Y001607D02*
X011969Y000622D01*
X012433Y002245D02*
X013418Y002071D01*
M02*
