G75*
%MOIN*%
%OFA0B0*%
%FSLAX24Y24*%
%IPPOS*%
%LPD*%
%AMOC8*
5,1,8,0,0,1.08239X$1,22.5*
%
%ADD10C,0.1162*%
%ADD11C,0.0800*%
%ADD12C,0.0560*%
%ADD13R,0.0560X0.0560*%
%ADD14R,0.1560X0.0820*%
%ADD15R,0.0454X0.0651*%
%ADD16C,0.0120*%
%ADD17C,0.0456*%
D10*
X012788Y012788D03*
D11*
X013099Y004599D03*
X013099Y003595D03*
X012099Y003595D03*
X012099Y004599D03*
D12*
X012433Y002245D02*
X012926Y002158D01*
X013418Y002071D01*
X011882Y001115D02*
X011969Y000622D01*
X011882Y001115D02*
X011795Y001607D01*
D13*
G36*
X011655Y000791D02*
X011558Y001342D01*
X012109Y001439D01*
X012206Y000888D01*
X011655Y000791D01*
G37*
G36*
X013153Y001834D02*
X012602Y001931D01*
X012699Y002482D01*
X013250Y002385D01*
X013153Y001834D01*
G37*
D14*
X010386Y011567D03*
X001922Y008418D03*
D15*
X000701Y007827D03*
X011607Y012158D03*
D16*
X011174Y012119D02*
X002158Y012119D01*
X002039Y012237D02*
X011174Y012237D01*
X011174Y012356D02*
X001921Y012356D01*
X001802Y012474D02*
X011174Y012474D01*
X011174Y012593D02*
X001684Y012593D01*
X001565Y012711D02*
X011174Y012711D01*
X011174Y012830D02*
X001447Y012830D01*
X001328Y012948D02*
X011174Y012948D01*
X011174Y013067D02*
X001210Y013067D01*
X001091Y013185D02*
X011174Y013185D01*
X011174Y013304D02*
X000973Y013304D01*
X000854Y013422D02*
X011174Y013422D01*
X011174Y013536D02*
X011174Y009599D01*
X009797Y009621D01*
X008426Y009739D01*
X007066Y009953D01*
X005725Y010261D01*
X004408Y010662D01*
X003122Y011154D01*
X000741Y013536D01*
X011174Y013536D01*
X011174Y012000D02*
X002276Y012000D01*
X002395Y011882D02*
X011174Y011882D01*
X011174Y011763D02*
X002513Y011763D01*
X002632Y011645D02*
X011174Y011645D01*
X011174Y011526D02*
X002750Y011526D01*
X002869Y011408D02*
X011174Y011408D01*
X011174Y011289D02*
X002987Y011289D01*
X003106Y011171D02*
X011174Y011171D01*
X011174Y011052D02*
X003389Y011052D01*
X003698Y010934D02*
X011174Y010934D01*
X011174Y010815D02*
X004008Y010815D01*
X004317Y010697D02*
X011174Y010697D01*
X011174Y010578D02*
X004683Y010578D01*
X005072Y010460D02*
X011174Y010460D01*
X011174Y010341D02*
X005461Y010341D01*
X005446Y009986D02*
X001134Y009986D01*
X001134Y010104D02*
X004787Y010104D01*
X005242Y010033D02*
X003882Y010246D01*
X002511Y010364D01*
X001134Y010386D01*
X001134Y006449D01*
X011567Y006449D01*
X009185Y008831D01*
X007900Y009323D01*
X006583Y009724D01*
X005242Y010033D01*
X005891Y010223D02*
X011174Y010223D01*
X011174Y010104D02*
X006407Y010104D01*
X006478Y009749D02*
X001134Y009749D01*
X001134Y009867D02*
X005962Y009867D01*
X006893Y009630D02*
X001134Y009630D01*
X001134Y009512D02*
X007282Y009512D01*
X007671Y009393D02*
X001134Y009393D01*
X001134Y009275D02*
X008027Y009275D01*
X008337Y009156D02*
X001134Y009156D01*
X001134Y009038D02*
X008646Y009038D01*
X008956Y008919D02*
X001134Y008919D01*
X001134Y008801D02*
X009216Y008801D01*
X009335Y008682D02*
X001134Y008682D01*
X001134Y008564D02*
X009453Y008564D01*
X009572Y008445D02*
X001134Y008445D01*
X001134Y008327D02*
X009690Y008327D01*
X009809Y008208D02*
X001134Y008208D01*
X001134Y008090D02*
X009927Y008090D01*
X010046Y007971D02*
X001134Y007971D01*
X001134Y007853D02*
X010164Y007853D01*
X010283Y007734D02*
X001134Y007734D01*
X001134Y007616D02*
X010401Y007616D01*
X010520Y007497D02*
X001134Y007497D01*
X001134Y007379D02*
X010638Y007379D01*
X010757Y007260D02*
X001134Y007260D01*
X001134Y007142D02*
X010875Y007142D01*
X010994Y007023D02*
X001134Y007023D01*
X001134Y006905D02*
X011112Y006905D01*
X011231Y006786D02*
X001134Y006786D01*
X001134Y006668D02*
X011349Y006668D01*
X011468Y006549D02*
X001134Y006549D01*
X001134Y010223D02*
X004032Y010223D01*
X002780Y010341D02*
X001134Y010341D01*
X006922Y009986D02*
X011174Y009986D01*
X011174Y009867D02*
X007610Y009867D01*
X008365Y009749D02*
X011174Y009749D01*
X011174Y009630D02*
X009690Y009630D01*
D17*
X002040Y000859D03*
X001292Y002158D03*
X003418Y000780D03*
X003969Y001370D03*
X003969Y002394D03*
X004638Y002552D03*
X005977Y003221D03*
X006292Y003654D03*
X006646Y004678D03*
X006882Y005307D03*
X008241Y002945D03*
X009796Y004599D03*
X010544Y005111D03*
X010111Y003103D03*
X010111Y002197D03*
X010032Y000583D03*
X007237Y000583D03*
X001961Y004717D03*
X000662Y006764D03*
X001882Y007630D03*
X012591Y005465D03*
M02*
