G75*
%MOIN*%
%OFA0B0*%
%FSLAX24Y24*%
%IPPOS*%
%LPD*%
%AMOC8*
5,1,8,0,0,1.08239X$1,22.5*
%
%ADD10C,0.0000*%
%ADD11R,0.1500X0.0760*%
%ADD12R,0.0394X0.0591*%
%ADD13C,0.0050*%
D10*
X000150Y000150D02*
X000150Y013930D01*
X013930Y013930D01*
X013930Y000150D01*
X000150Y000150D01*
X012237Y012788D02*
X012239Y012835D01*
X012245Y012881D01*
X012255Y012927D01*
X012268Y012972D01*
X012286Y013015D01*
X012307Y013057D01*
X012331Y013097D01*
X012359Y013134D01*
X012390Y013169D01*
X012424Y013202D01*
X012460Y013231D01*
X012499Y013257D01*
X012540Y013280D01*
X012583Y013299D01*
X012627Y013315D01*
X012672Y013327D01*
X012718Y013335D01*
X012765Y013339D01*
X012811Y013339D01*
X012858Y013335D01*
X012904Y013327D01*
X012949Y013315D01*
X012993Y013299D01*
X013036Y013280D01*
X013077Y013257D01*
X013116Y013231D01*
X013152Y013202D01*
X013186Y013169D01*
X013217Y013134D01*
X013245Y013097D01*
X013269Y013057D01*
X013290Y013015D01*
X013308Y012972D01*
X013321Y012927D01*
X013331Y012881D01*
X013337Y012835D01*
X013339Y012788D01*
X013337Y012741D01*
X013331Y012695D01*
X013321Y012649D01*
X013308Y012604D01*
X013290Y012561D01*
X013269Y012519D01*
X013245Y012479D01*
X013217Y012442D01*
X013186Y012407D01*
X013152Y012374D01*
X013116Y012345D01*
X013077Y012319D01*
X013036Y012296D01*
X012993Y012277D01*
X012949Y012261D01*
X012904Y012249D01*
X012858Y012241D01*
X012811Y012237D01*
X012765Y012237D01*
X012718Y012241D01*
X012672Y012249D01*
X012627Y012261D01*
X012583Y012277D01*
X012540Y012296D01*
X012499Y012319D01*
X012460Y012345D01*
X012424Y012374D01*
X012390Y012407D01*
X012359Y012442D01*
X012331Y012479D01*
X012307Y012519D01*
X012286Y012561D01*
X012268Y012604D01*
X012255Y012649D01*
X012245Y012695D01*
X012239Y012741D01*
X012237Y012788D01*
D11*
X010386Y011567D03*
X001922Y008418D03*
D12*
X000701Y007827D03*
X011607Y012158D03*
D13*
X011181Y012178D02*
X002093Y012178D01*
X002045Y012227D02*
X011181Y012227D01*
X011182Y012275D02*
X001996Y012275D01*
X001947Y012324D02*
X011182Y012324D01*
X011182Y012372D02*
X001898Y012372D01*
X001850Y012421D02*
X011182Y012421D01*
X011182Y012469D02*
X001801Y012469D01*
X001752Y012518D02*
X011182Y012518D01*
X011183Y012566D02*
X001703Y012566D01*
X001655Y012615D02*
X011183Y012615D01*
X011183Y012663D02*
X001606Y012663D01*
X001557Y012712D02*
X011183Y012712D01*
X011183Y012760D02*
X001508Y012760D01*
X001460Y012809D02*
X011183Y012809D01*
X011183Y012857D02*
X001411Y012857D01*
X001362Y012906D02*
X011184Y012906D01*
X011184Y012954D02*
X001313Y012954D01*
X001265Y013003D02*
X011184Y013003D01*
X011184Y013051D02*
X001216Y013051D01*
X001167Y013100D02*
X011184Y013100D01*
X011184Y013148D02*
X001118Y013148D01*
X001070Y013197D02*
X011184Y013197D01*
X011185Y013245D02*
X001021Y013245D01*
X000972Y013294D02*
X011185Y013294D01*
X011185Y013342D02*
X000923Y013342D01*
X000875Y013391D02*
X011185Y013391D01*
X011185Y013439D02*
X000826Y013439D01*
X000777Y013488D02*
X011185Y013488D01*
X011185Y013536D02*
X000729Y013536D01*
X000721Y013544D02*
X003122Y011154D01*
X004408Y010662D01*
X005725Y010261D01*
X007066Y009953D01*
X008426Y009739D01*
X009797Y009621D01*
X011174Y009599D01*
X011185Y013544D01*
X000721Y013544D01*
X002142Y012130D02*
X011181Y012130D01*
X011181Y012081D02*
X002191Y012081D01*
X002239Y012033D02*
X011181Y012033D01*
X011181Y011984D02*
X002288Y011984D01*
X002337Y011936D02*
X011181Y011936D01*
X011180Y011887D02*
X002386Y011887D01*
X002434Y011839D02*
X011180Y011839D01*
X011180Y011790D02*
X002483Y011790D01*
X002532Y011742D02*
X011180Y011742D01*
X011180Y011693D02*
X002581Y011693D01*
X002629Y011645D02*
X011180Y011645D01*
X011180Y011596D02*
X002678Y011596D01*
X002727Y011548D02*
X011179Y011548D01*
X011179Y011499D02*
X002776Y011499D01*
X002824Y011451D02*
X011179Y011451D01*
X011179Y011402D02*
X002873Y011402D01*
X002922Y011354D02*
X011179Y011354D01*
X011179Y011305D02*
X002971Y011305D01*
X003019Y011257D02*
X011179Y011257D01*
X011178Y011208D02*
X003068Y011208D01*
X003117Y011160D02*
X011178Y011160D01*
X011178Y011111D02*
X003234Y011111D01*
X003361Y011063D02*
X011178Y011063D01*
X011178Y011014D02*
X003488Y011014D01*
X003614Y010966D02*
X011178Y010966D01*
X011178Y010917D02*
X003741Y010917D01*
X003868Y010869D02*
X011177Y010869D01*
X011177Y010820D02*
X003994Y010820D01*
X004121Y010772D02*
X011177Y010772D01*
X011177Y010723D02*
X004248Y010723D01*
X004375Y010675D02*
X011177Y010675D01*
X011177Y010626D02*
X004525Y010626D01*
X004684Y010578D02*
X011177Y010578D01*
X011176Y010529D02*
X004844Y010529D01*
X005003Y010481D02*
X011176Y010481D01*
X011176Y010432D02*
X005162Y010432D01*
X005321Y010384D02*
X011176Y010384D01*
X011176Y010335D02*
X005480Y010335D01*
X005640Y010287D02*
X011176Y010287D01*
X011176Y010238D02*
X005823Y010238D01*
X006034Y010190D02*
X011175Y010190D01*
X011175Y010141D02*
X006245Y010141D01*
X006456Y010093D02*
X011175Y010093D01*
X011175Y010044D02*
X006668Y010044D01*
X006879Y009996D02*
X011175Y009996D01*
X011175Y009947D02*
X007101Y009947D01*
X007410Y009899D02*
X011175Y009899D01*
X011174Y009850D02*
X007718Y009850D01*
X008027Y009802D02*
X011174Y009802D01*
X011174Y009753D02*
X008336Y009753D01*
X008825Y009705D02*
X011174Y009705D01*
X011174Y009656D02*
X009388Y009656D01*
X009058Y008880D02*
X001130Y008880D01*
X001130Y008832D02*
X009184Y008832D01*
X009185Y008831D02*
X007900Y009323D01*
X006583Y009724D01*
X005242Y010033D01*
X003882Y010246D01*
X002511Y010364D01*
X001134Y010386D01*
X001122Y006441D01*
X011587Y006441D01*
X009185Y008831D01*
X009234Y008783D02*
X001129Y008783D01*
X001129Y008735D02*
X009282Y008735D01*
X009331Y008686D02*
X001129Y008686D01*
X001129Y008638D02*
X009380Y008638D01*
X009429Y008589D02*
X001129Y008589D01*
X001129Y008541D02*
X009477Y008541D01*
X009526Y008492D02*
X001129Y008492D01*
X001128Y008444D02*
X009575Y008444D01*
X009624Y008395D02*
X001128Y008395D01*
X001128Y008347D02*
X009672Y008347D01*
X009721Y008298D02*
X001128Y008298D01*
X001128Y008250D02*
X009770Y008250D01*
X009819Y008201D02*
X001128Y008201D01*
X001128Y008153D02*
X009867Y008153D01*
X009916Y008104D02*
X001127Y008104D01*
X001127Y008056D02*
X009965Y008056D01*
X010014Y008007D02*
X001127Y008007D01*
X001127Y007959D02*
X010062Y007959D01*
X010111Y007910D02*
X001127Y007910D01*
X001127Y007862D02*
X010160Y007862D01*
X010209Y007813D02*
X001127Y007813D01*
X001126Y007765D02*
X010257Y007765D01*
X010306Y007716D02*
X001126Y007716D01*
X001126Y007668D02*
X010355Y007668D01*
X010403Y007619D02*
X001126Y007619D01*
X001126Y007571D02*
X010452Y007571D01*
X010501Y007522D02*
X001126Y007522D01*
X001126Y007474D02*
X010550Y007474D01*
X010598Y007425D02*
X001125Y007425D01*
X001125Y007377D02*
X010647Y007377D01*
X010696Y007328D02*
X001125Y007328D01*
X001125Y007280D02*
X010745Y007280D01*
X010793Y007231D02*
X001125Y007231D01*
X001125Y007183D02*
X010842Y007183D01*
X010891Y007134D02*
X001125Y007134D01*
X001124Y007086D02*
X010940Y007086D01*
X010988Y007037D02*
X001124Y007037D01*
X001124Y006989D02*
X011037Y006989D01*
X011086Y006940D02*
X001124Y006940D01*
X001124Y006892D02*
X011135Y006892D01*
X011183Y006843D02*
X001124Y006843D01*
X001123Y006795D02*
X011232Y006795D01*
X011281Y006746D02*
X001123Y006746D01*
X001123Y006698D02*
X011330Y006698D01*
X011378Y006649D02*
X001123Y006649D01*
X001123Y006601D02*
X011427Y006601D01*
X011476Y006552D02*
X001123Y006552D01*
X001123Y006504D02*
X011525Y006504D01*
X011573Y006455D02*
X001122Y006455D01*
X001130Y008929D02*
X008931Y008929D01*
X008804Y008977D02*
X001130Y008977D01*
X001130Y009026D02*
X008678Y009026D01*
X008551Y009074D02*
X001130Y009074D01*
X001130Y009123D02*
X008424Y009123D01*
X008298Y009171D02*
X001131Y009171D01*
X001131Y009220D02*
X008171Y009220D01*
X008044Y009268D02*
X001131Y009268D01*
X001131Y009317D02*
X007918Y009317D01*
X007763Y009365D02*
X001131Y009365D01*
X001131Y009414D02*
X007604Y009414D01*
X007444Y009462D02*
X001131Y009462D01*
X001132Y009511D02*
X007285Y009511D01*
X007126Y009559D02*
X001132Y009559D01*
X001132Y009608D02*
X006967Y009608D01*
X006808Y009656D02*
X001132Y009656D01*
X001132Y009705D02*
X006648Y009705D01*
X006459Y009753D02*
X001132Y009753D01*
X001133Y009802D02*
X006247Y009802D01*
X006036Y009850D02*
X001133Y009850D01*
X001133Y009899D02*
X005825Y009899D01*
X005614Y009947D02*
X001133Y009947D01*
X001133Y009996D02*
X005403Y009996D01*
X005168Y010044D02*
X001133Y010044D01*
X001133Y010093D02*
X004860Y010093D01*
X004551Y010141D02*
X001134Y010141D01*
X001134Y010190D02*
X004242Y010190D01*
X003934Y010238D02*
X001134Y010238D01*
X001134Y010287D02*
X003413Y010287D01*
X002850Y010335D02*
X001134Y010335D01*
X001134Y010384D02*
X001301Y010384D01*
X010627Y009608D02*
X011174Y009608D01*
M02*
