G75*
%MOIN*%
%OFA0B0*%
%FSLAX24Y24*%
%IPPOS*%
%LPD*%
%AMOC8*
5,1,8,0,0,1.08239X$1,22.5*
%
%ADD10C,0.1162*%
%ADD11R,0.2107X0.2107*%
%ADD12C,0.0178*%
%ADD13R,0.0493X0.0454*%
%ADD14R,0.0454X0.0493*%
%ADD15C,0.0800*%
%ADD16C,0.0560*%
%ADD17R,0.0560X0.0560*%
%ADD18R,0.0375X0.0375*%
%ADD19R,0.0233X0.0371*%
%ADD20C,0.1160*%
%ADD21R,0.1560X0.0820*%
%ADD22R,0.0454X0.0651*%
%ADD23C,0.0120*%
%ADD24R,0.0355X0.0166*%
%ADD25R,0.0166X0.0355*%
%ADD26C,0.0456*%
D10*
X012788Y012788D03*
D11*
X008241Y002945D03*
D12*
X009480Y002847D02*
X009638Y002847D01*
X009638Y003044D02*
X009480Y003044D01*
X009480Y003241D02*
X009638Y003241D01*
X009638Y003437D02*
X009480Y003437D01*
X009480Y003634D02*
X009638Y003634D01*
X009638Y003831D02*
X009480Y003831D01*
X009480Y004028D02*
X009638Y004028D01*
X009323Y004185D02*
X009323Y004343D01*
X009126Y004343D02*
X009126Y004185D01*
X008930Y004185D02*
X008930Y004343D01*
X008733Y004343D02*
X008733Y004185D01*
X008536Y004185D02*
X008536Y004343D01*
X008339Y004343D02*
X008339Y004185D01*
X008142Y004185D02*
X008142Y004343D01*
X007945Y004343D02*
X007945Y004185D01*
X007748Y004185D02*
X007748Y004343D01*
X007552Y004343D02*
X007552Y004185D01*
X007355Y004185D02*
X007355Y004343D01*
X007158Y004343D02*
X007158Y004185D01*
X007001Y004028D02*
X006843Y004028D01*
X006843Y003831D02*
X007001Y003831D01*
X007001Y003634D02*
X006843Y003634D01*
X006843Y003437D02*
X007001Y003437D01*
X007001Y003241D02*
X006843Y003241D01*
X006843Y003044D02*
X007001Y003044D01*
X007001Y002847D02*
X006843Y002847D01*
X006843Y002650D02*
X007001Y002650D01*
X007001Y002453D02*
X006843Y002453D01*
X006843Y002256D02*
X007001Y002256D01*
X007001Y002059D02*
X006843Y002059D01*
X006843Y001863D02*
X007001Y001863D01*
X007158Y001705D02*
X007158Y001547D01*
X007355Y001547D02*
X007355Y001705D01*
X007552Y001705D02*
X007552Y001547D01*
X007748Y001547D02*
X007748Y001705D01*
X007945Y001705D02*
X007945Y001547D01*
X008142Y001547D02*
X008142Y001705D01*
X008339Y001705D02*
X008339Y001547D01*
X008536Y001547D02*
X008536Y001705D01*
X008733Y001705D02*
X008733Y001547D01*
X008930Y001547D02*
X008930Y001705D01*
X009126Y001705D02*
X009126Y001547D01*
X009323Y001547D02*
X009323Y001705D01*
X009480Y001863D02*
X009638Y001863D01*
X009638Y002059D02*
X009480Y002059D01*
X009480Y002256D02*
X009638Y002256D01*
X009638Y002453D02*
X009480Y002453D01*
X009480Y002650D02*
X009638Y002650D01*
D13*
X009500Y000996D03*
X008831Y000996D03*
X006430Y001292D03*
X005760Y001292D03*
X005819Y002552D03*
X005150Y002552D03*
X007394Y005307D03*
X008063Y005307D03*
X008733Y005307D03*
X009402Y005307D03*
D14*
X011095Y005111D03*
X011095Y004441D03*
X011075Y003811D03*
X011075Y003142D03*
X010957Y001666D03*
X010445Y001666D03*
X010445Y000996D03*
X010957Y000996D03*
X005701Y004638D03*
X005701Y005307D03*
X004638Y003910D03*
X004638Y003241D03*
X002040Y002020D03*
X002040Y001351D03*
X001292Y002650D03*
X001292Y003319D03*
X001292Y004067D03*
X001292Y004737D03*
D15*
X012099Y004599D03*
X012099Y003595D03*
X013099Y003595D03*
X013099Y004599D03*
D16*
X012433Y002245D02*
X012926Y002158D01*
X013418Y002071D01*
X011882Y001115D02*
X011969Y000622D01*
X011882Y001115D02*
X011795Y001607D01*
D17*
G36*
X011655Y000791D02*
X011558Y001342D01*
X012109Y001439D01*
X012206Y000888D01*
X011655Y000791D01*
G37*
G36*
X013153Y001834D02*
X012602Y001931D01*
X012699Y002482D01*
X013250Y002385D01*
X013153Y001834D01*
G37*
D18*
X005130Y000760D03*
X004540Y000760D03*
D19*
X007622Y000526D03*
X007622Y000994D03*
X008386Y000994D03*
X008386Y000526D03*
D20*
X013339Y007040D03*
X007040Y013339D03*
D21*
X001804Y010662D03*
X011213Y007906D03*
D22*
X012433Y007315D03*
X000583Y011252D03*
D23*
X001016Y011289D02*
X010108Y011289D01*
X010226Y011408D02*
X001016Y011408D01*
X001016Y011526D02*
X010345Y011526D01*
X010463Y011645D02*
X001016Y011645D01*
X001016Y011763D02*
X010582Y011763D01*
X010700Y011882D02*
X001016Y011882D01*
X001016Y012000D02*
X010819Y012000D01*
X010937Y012119D02*
X001016Y012119D01*
X001016Y012237D02*
X011056Y012237D01*
X011174Y012356D02*
X001016Y012356D01*
X001016Y012474D02*
X011293Y012474D01*
X011411Y012593D02*
X001016Y012593D01*
X001016Y012630D02*
X001016Y008693D01*
X002392Y008715D01*
X003764Y008833D01*
X005124Y009047D01*
X006465Y009355D01*
X007782Y009756D01*
X009067Y010248D01*
X011449Y012630D01*
X001016Y012630D01*
X001016Y011171D02*
X009989Y011171D01*
X009871Y011052D02*
X001016Y011052D01*
X001016Y010934D02*
X009752Y010934D01*
X009634Y010815D02*
X001016Y010815D01*
X001016Y010697D02*
X009515Y010697D01*
X009397Y010578D02*
X001016Y010578D01*
X001016Y010460D02*
X009278Y010460D01*
X009160Y010341D02*
X001016Y010341D01*
X001016Y010223D02*
X009000Y010223D01*
X008690Y010104D02*
X001016Y010104D01*
X001016Y009986D02*
X008381Y009986D01*
X008071Y009867D02*
X001016Y009867D01*
X001016Y009749D02*
X007756Y009749D01*
X007853Y009512D02*
X012000Y009512D01*
X012000Y009630D02*
X008589Y009630D01*
X009253Y009734D02*
X010624Y009852D01*
X012000Y009874D01*
X012000Y005937D01*
X001567Y005937D01*
X003949Y008319D01*
X005235Y008811D01*
X006551Y009213D01*
X007893Y009521D01*
X009253Y009734D01*
X009417Y009749D02*
X012000Y009749D01*
X012000Y009867D02*
X011537Y009867D01*
X012000Y009393D02*
X007337Y009393D01*
X007367Y009630D02*
X001016Y009630D01*
X001016Y009512D02*
X006978Y009512D01*
X006821Y009275D02*
X012000Y009275D01*
X012000Y009156D02*
X006366Y009156D01*
X006590Y009393D02*
X001016Y009393D01*
X001016Y009275D02*
X006114Y009275D01*
X005977Y009038D02*
X012000Y009038D01*
X012000Y008919D02*
X005588Y008919D01*
X005598Y009156D02*
X001016Y009156D01*
X001016Y009038D02*
X005063Y009038D01*
X005206Y008801D02*
X012000Y008801D01*
X012000Y008682D02*
X004897Y008682D01*
X004587Y008564D02*
X012000Y008564D01*
X012000Y008445D02*
X004278Y008445D01*
X003968Y008327D02*
X012000Y008327D01*
X012000Y008208D02*
X003838Y008208D01*
X003719Y008090D02*
X012000Y008090D01*
X012000Y007971D02*
X003601Y007971D01*
X003482Y007853D02*
X012000Y007853D01*
X012000Y007734D02*
X003364Y007734D01*
X003245Y007616D02*
X012000Y007616D01*
X012000Y007497D02*
X003127Y007497D01*
X003008Y007379D02*
X012000Y007379D01*
X012000Y007260D02*
X002890Y007260D01*
X002771Y007142D02*
X012000Y007142D01*
X012000Y007023D02*
X002653Y007023D01*
X002534Y006905D02*
X012000Y006905D01*
X012000Y006786D02*
X002416Y006786D01*
X002297Y006668D02*
X012000Y006668D01*
X012000Y006549D02*
X002179Y006549D01*
X002060Y006431D02*
X012000Y006431D01*
X012000Y006312D02*
X001942Y006312D01*
X001823Y006194D02*
X012000Y006194D01*
X012000Y006075D02*
X001705Y006075D01*
X001586Y005957D02*
X012000Y005957D01*
X004309Y008919D02*
X001016Y008919D01*
X001016Y008801D02*
X003382Y008801D01*
D24*
X003246Y004325D03*
X003246Y004156D03*
X003246Y003987D03*
X003246Y003817D03*
X003246Y003648D03*
X003246Y003479D03*
X003246Y003309D03*
X003246Y003140D03*
X002172Y003140D03*
X002172Y003309D03*
X002172Y003479D03*
X002172Y003648D03*
X002172Y003817D03*
X002172Y003987D03*
X002172Y004156D03*
X002172Y004325D03*
D25*
X002455Y004369D03*
X002624Y004369D03*
X002794Y004369D03*
X002963Y004369D03*
X002963Y003097D03*
X002794Y003097D03*
X002624Y003097D03*
X002455Y003097D03*
D26*
X002040Y000859D03*
X001292Y002158D03*
X003418Y000780D03*
X003969Y001370D03*
X003969Y002394D03*
X004638Y002552D03*
X005977Y003221D03*
X006292Y003654D03*
X006646Y004678D03*
X006882Y005307D03*
X008241Y002945D03*
X009796Y004599D03*
X010544Y005111D03*
X010111Y003103D03*
X010111Y002197D03*
X010032Y000583D03*
X007237Y000583D03*
X001961Y004717D03*
X000662Y006764D03*
X001882Y007630D03*
X012591Y005465D03*
M02*
