G75*
%MOIN*%
%OFA0B0*%
%FSLAX24Y24*%
%IPPOS*%
%LPD*%
%AMOC8*
5,1,8,0,0,1.08239X$1,22.5*
%
%ADD10C,0.0740*%
%ADD11C,0.0500*%
%ADD12R,0.0500X0.0500*%
%ADD13R,0.1500X0.0760*%
%ADD14R,0.0394X0.0591*%
%ADD15C,0.0060*%
%ADD16C,0.0160*%
%ADD17C,0.0396*%
%ADD18C,0.0100*%
D10*
X012099Y003595D03*
X012099Y004599D03*
X013099Y004599D03*
X013099Y003595D03*
D11*
X012926Y002158D02*
X012433Y002245D01*
X012926Y002158D02*
X013418Y002071D01*
X011882Y001115D02*
X011969Y000622D01*
X011882Y001115D02*
X011795Y001607D01*
D12*
G36*
X011680Y000826D02*
X011593Y001317D01*
X012084Y001404D01*
X012171Y000913D01*
X011680Y000826D01*
G37*
G36*
X013128Y001869D02*
X012637Y001956D01*
X012724Y002447D01*
X013215Y002360D01*
X013128Y001869D01*
G37*
D13*
X010386Y011567D03*
X001922Y008418D03*
D14*
X000701Y007827D03*
X011607Y012158D03*
D15*
X011174Y012143D02*
X002134Y012143D01*
X002075Y012201D02*
X011174Y012201D01*
X011174Y012260D02*
X002017Y012260D01*
X001958Y012318D02*
X011174Y012318D01*
X011174Y012377D02*
X001900Y012377D01*
X001841Y012435D02*
X011174Y012435D01*
X011174Y012494D02*
X001783Y012494D01*
X001724Y012552D02*
X011174Y012552D01*
X011174Y012611D02*
X001666Y012611D01*
X001607Y012669D02*
X011174Y012669D01*
X011174Y012728D02*
X001549Y012728D01*
X001490Y012786D02*
X011174Y012786D01*
X011174Y012845D02*
X001432Y012845D01*
X001373Y012903D02*
X011174Y012903D01*
X011174Y012962D02*
X001315Y012962D01*
X001256Y013020D02*
X011174Y013020D01*
X011174Y013079D02*
X001198Y013079D01*
X001139Y013137D02*
X011174Y013137D01*
X011174Y013196D02*
X001081Y013196D01*
X001022Y013254D02*
X011174Y013254D01*
X011174Y013313D02*
X000964Y013313D01*
X000905Y013371D02*
X011174Y013371D01*
X011174Y013430D02*
X000847Y013430D01*
X000788Y013488D02*
X011174Y013488D01*
X011174Y013536D02*
X011174Y009599D01*
X009797Y009621D01*
X008426Y009739D01*
X007066Y009953D01*
X005725Y010261D01*
X004408Y010662D01*
X003122Y011154D01*
X000741Y013536D01*
X011174Y013536D01*
X011174Y012084D02*
X002192Y012084D01*
X002251Y012026D02*
X011174Y012026D01*
X011174Y011967D02*
X002309Y011967D01*
X002368Y011909D02*
X011174Y011909D01*
X011174Y011850D02*
X002426Y011850D01*
X002485Y011792D02*
X011174Y011792D01*
X011174Y011733D02*
X002543Y011733D01*
X002602Y011675D02*
X011174Y011675D01*
X011174Y011616D02*
X002660Y011616D01*
X002719Y011558D02*
X011174Y011558D01*
X011174Y011499D02*
X002777Y011499D01*
X002836Y011441D02*
X011174Y011441D01*
X011174Y011382D02*
X002894Y011382D01*
X002953Y011324D02*
X011174Y011324D01*
X011174Y011265D02*
X003011Y011265D01*
X003070Y011207D02*
X011174Y011207D01*
X011174Y011148D02*
X003138Y011148D01*
X003291Y011090D02*
X011174Y011090D01*
X011174Y011031D02*
X003443Y011031D01*
X003596Y010973D02*
X011174Y010973D01*
X011174Y010914D02*
X003749Y010914D01*
X003902Y010856D02*
X011174Y010856D01*
X011174Y010797D02*
X004055Y010797D01*
X004207Y010739D02*
X011174Y010739D01*
X011174Y010680D02*
X004360Y010680D01*
X004540Y010622D02*
X011174Y010622D01*
X011174Y010563D02*
X004732Y010563D01*
X004924Y010505D02*
X011174Y010505D01*
X011174Y010446D02*
X005116Y010446D01*
X005308Y010388D02*
X011174Y010388D01*
X011174Y010329D02*
X005500Y010329D01*
X005692Y010271D02*
X011174Y010271D01*
X011174Y010212D02*
X005936Y010212D01*
X006191Y010154D02*
X011174Y010154D01*
X011174Y010095D02*
X006446Y010095D01*
X006700Y010037D02*
X011174Y010037D01*
X011174Y009978D02*
X006955Y009978D01*
X007276Y009920D02*
X011174Y009920D01*
X011174Y009861D02*
X007648Y009861D01*
X008021Y009803D02*
X011174Y009803D01*
X011174Y009744D02*
X008393Y009744D01*
X008023Y009276D02*
X001134Y009276D01*
X001134Y009218D02*
X008176Y009218D01*
X008329Y009159D02*
X001134Y009159D01*
X001134Y009101D02*
X008482Y009101D01*
X008635Y009042D02*
X001134Y009042D01*
X001134Y008984D02*
X008787Y008984D01*
X008940Y008925D02*
X001134Y008925D01*
X001134Y008867D02*
X009093Y008867D01*
X009185Y008831D02*
X007900Y009323D01*
X006583Y009724D01*
X005242Y010033D01*
X003882Y010246D01*
X002511Y010364D01*
X001134Y010386D01*
X001134Y006449D01*
X011567Y006449D01*
X009185Y008831D01*
X009208Y008808D02*
X001134Y008808D01*
X001134Y008750D02*
X009267Y008750D01*
X009325Y008691D02*
X001134Y008691D01*
X001134Y008633D02*
X009384Y008633D01*
X009443Y008574D02*
X001134Y008574D01*
X001134Y008516D02*
X009501Y008516D01*
X009560Y008457D02*
X001134Y008457D01*
X001134Y008399D02*
X009618Y008399D01*
X009677Y008340D02*
X001134Y008340D01*
X001134Y008282D02*
X009735Y008282D01*
X009794Y008223D02*
X001134Y008223D01*
X001134Y008165D02*
X009852Y008165D01*
X009911Y008106D02*
X001134Y008106D01*
X001134Y008048D02*
X009969Y008048D01*
X010028Y007989D02*
X001134Y007989D01*
X001134Y007931D02*
X010086Y007931D01*
X010145Y007872D02*
X001134Y007872D01*
X001134Y007814D02*
X010203Y007814D01*
X010262Y007755D02*
X001134Y007755D01*
X001134Y007697D02*
X010320Y007697D01*
X010379Y007638D02*
X001134Y007638D01*
X001134Y007580D02*
X010437Y007580D01*
X010496Y007521D02*
X001134Y007521D01*
X001134Y007463D02*
X010554Y007463D01*
X010613Y007404D02*
X001134Y007404D01*
X001134Y007346D02*
X010671Y007346D01*
X010730Y007287D02*
X001134Y007287D01*
X001134Y007229D02*
X010788Y007229D01*
X010847Y007170D02*
X001134Y007170D01*
X001134Y007112D02*
X010905Y007112D01*
X010964Y007053D02*
X001134Y007053D01*
X001134Y006995D02*
X011022Y006995D01*
X011081Y006936D02*
X001134Y006936D01*
X001134Y006878D02*
X011139Y006878D01*
X011198Y006819D02*
X001134Y006819D01*
X001134Y006761D02*
X011256Y006761D01*
X011315Y006702D02*
X001134Y006702D01*
X001134Y006644D02*
X011373Y006644D01*
X011432Y006585D02*
X001134Y006585D01*
X001134Y006527D02*
X011490Y006527D01*
X011549Y006468D02*
X001134Y006468D01*
X001134Y009335D02*
X007863Y009335D01*
X007671Y009393D02*
X001134Y009393D01*
X001134Y009452D02*
X007479Y009452D01*
X007287Y009510D02*
X001134Y009510D01*
X001134Y009569D02*
X007095Y009569D01*
X006903Y009627D02*
X001134Y009627D01*
X001134Y009686D02*
X006711Y009686D01*
X006498Y009744D02*
X001134Y009744D01*
X001134Y009803D02*
X006243Y009803D01*
X005988Y009861D02*
X001134Y009861D01*
X001134Y009920D02*
X005734Y009920D01*
X005479Y009978D02*
X001134Y009978D01*
X001134Y010037D02*
X005216Y010037D01*
X004844Y010095D02*
X001134Y010095D01*
X001134Y010154D02*
X004472Y010154D01*
X004099Y010212D02*
X001134Y010212D01*
X001134Y010271D02*
X003599Y010271D01*
X002919Y010329D02*
X001134Y010329D01*
X009045Y009686D02*
X011174Y009686D01*
X011174Y009627D02*
X009725Y009627D01*
D16*
X010032Y011213D02*
X010386Y011567D01*
X010032Y011213D02*
X007945Y011213D01*
X005150Y008418D01*
X001922Y008418D01*
X001922Y007630D01*
X001882Y007630D01*
X000701Y007827D02*
X000701Y006804D01*
X000662Y006764D01*
X000662Y005465D01*
X011607Y007000D02*
X012433Y006174D01*
X012433Y005583D01*
X012591Y005465D02*
X012788Y005426D01*
X011607Y007000D02*
X011607Y012158D01*
D17*
X012591Y005465D03*
X010544Y005111D03*
X009796Y004599D03*
X010111Y003103D03*
X010111Y002197D03*
X010032Y000583D03*
X008241Y002945D03*
X006646Y004678D03*
X006882Y005307D03*
X006292Y003654D03*
X005977Y003221D03*
X004638Y002552D03*
X003969Y002394D03*
X003969Y001370D03*
X003418Y000780D03*
X002040Y000859D03*
X001292Y002158D03*
X001961Y004717D03*
X000662Y006764D03*
X001882Y007630D03*
X007237Y000583D03*
D18*
X000400Y000400D02*
X000400Y005662D01*
X013680Y005662D01*
X013680Y002906D01*
X012636Y002906D01*
X012891Y003161D01*
X013003Y003115D01*
X013194Y003115D01*
X013371Y003188D01*
X013506Y003323D01*
X013579Y003499D01*
X013680Y003499D01*
X013680Y003401D02*
X013538Y003401D01*
X013579Y003499D02*
X013579Y003690D01*
X013506Y003867D01*
X013371Y004002D01*
X013194Y004075D01*
X013003Y004075D01*
X012827Y004002D01*
X012692Y003867D01*
X012619Y003690D01*
X012619Y003499D01*
X012579Y003499D01*
X012579Y003690D01*
X012506Y003867D01*
X012371Y004002D01*
X012194Y004075D01*
X012003Y004075D01*
X011827Y004002D01*
X011692Y003867D01*
X011670Y003814D01*
X006559Y003814D01*
X006553Y003828D01*
X006466Y003915D01*
X006353Y003962D01*
X006230Y003962D01*
X006117Y003915D01*
X006031Y003828D01*
X005984Y003715D01*
X005984Y003593D01*
X006010Y003529D01*
X005915Y003529D01*
X005802Y003482D01*
X005716Y003395D01*
X005669Y003282D01*
X005669Y003160D01*
X005716Y003046D01*
X005802Y002960D01*
X005915Y002913D01*
X006038Y002913D01*
X006151Y002960D01*
X006238Y003046D01*
X006244Y003061D01*
X006515Y003061D01*
X006752Y003297D01*
X009869Y003297D01*
X009849Y003277D01*
X009803Y003164D01*
X009803Y003041D01*
X009849Y002928D01*
X009936Y002842D01*
X009951Y002836D01*
X009951Y002464D01*
X009936Y002458D01*
X009849Y002372D01*
X009803Y002259D01*
X009803Y002136D01*
X009849Y002023D01*
X009936Y001936D01*
X010049Y001889D01*
X010172Y001889D01*
X010285Y001936D01*
X010372Y002023D01*
X010419Y002136D01*
X010419Y002259D01*
X010372Y002372D01*
X010285Y002458D01*
X010271Y002464D01*
X010271Y002836D01*
X010285Y002842D01*
X010372Y002928D01*
X010419Y003041D01*
X010419Y003164D01*
X010372Y003277D01*
X010352Y003297D01*
X011186Y003297D01*
X011577Y002906D01*
X011174Y002906D01*
X011174Y000400D01*
X000400Y000400D01*
X000400Y000446D02*
X011174Y000446D01*
X011174Y000544D02*
X000400Y000544D01*
X000400Y000643D02*
X011174Y000643D01*
X011174Y000741D02*
X000400Y000741D01*
X000400Y000840D02*
X011174Y000840D01*
X011174Y000938D02*
X000400Y000938D01*
X000400Y001037D02*
X011174Y001037D01*
X011174Y001135D02*
X004169Y001135D01*
X004143Y001109D02*
X004030Y001062D01*
X003908Y001062D01*
X003794Y001109D01*
X003708Y001196D01*
X003661Y001309D01*
X003661Y001432D01*
X003708Y001545D01*
X003794Y001632D01*
X003809Y001638D01*
X003809Y002127D01*
X003794Y002133D01*
X003708Y002220D01*
X003661Y002333D01*
X003661Y002455D01*
X003708Y002569D01*
X003794Y002655D01*
X003908Y002702D01*
X004030Y002702D01*
X004143Y002655D01*
X004230Y002569D01*
X004277Y002455D01*
X004277Y002333D01*
X004230Y002220D01*
X004143Y002133D01*
X004129Y002127D01*
X004129Y001638D01*
X004143Y001632D01*
X004230Y001545D01*
X004277Y001432D01*
X004277Y001309D01*
X004230Y001196D01*
X004143Y001109D01*
X004246Y001234D02*
X011174Y001234D01*
X011174Y001332D02*
X004277Y001332D01*
X004277Y001431D02*
X011174Y001431D01*
X011174Y001529D02*
X004237Y001529D01*
X004148Y001628D02*
X011174Y001628D01*
X011174Y001726D02*
X004129Y001726D01*
X004129Y001825D02*
X011174Y001825D01*
X011174Y001923D02*
X010254Y001923D01*
X010371Y002022D02*
X011174Y002022D01*
X011174Y002120D02*
X010412Y002120D01*
X010419Y002219D02*
X011174Y002219D01*
X011174Y002317D02*
X010395Y002317D01*
X010328Y002416D02*
X011174Y002416D01*
X011174Y002514D02*
X010271Y002514D01*
X010271Y002613D02*
X011174Y002613D01*
X011174Y002711D02*
X010271Y002711D01*
X010271Y002810D02*
X011174Y002810D01*
X011378Y003105D02*
X010419Y003105D01*
X010404Y003007D02*
X011477Y003007D01*
X011575Y002908D02*
X010352Y002908D01*
X010402Y003204D02*
X011280Y003204D01*
X011252Y003457D02*
X011764Y002945D01*
X012449Y002945D01*
X013099Y003595D01*
X013480Y003893D02*
X013680Y003893D01*
X013680Y003795D02*
X013536Y003795D01*
X013576Y003696D02*
X013680Y003696D01*
X013680Y003598D02*
X013579Y003598D01*
X013485Y003302D02*
X013680Y003302D01*
X013680Y003204D02*
X013386Y003204D01*
X013680Y003105D02*
X012835Y003105D01*
X012737Y003007D02*
X013680Y003007D01*
X013680Y002908D02*
X012638Y002908D01*
X012383Y003105D02*
X011830Y003105D01*
X011442Y003494D01*
X011621Y003494D01*
X011692Y003323D01*
X011827Y003188D01*
X012003Y003115D01*
X012194Y003115D01*
X012371Y003188D01*
X012506Y003323D01*
X012579Y003499D01*
X012619Y003499D02*
X012665Y003388D01*
X012383Y003105D01*
X012386Y003204D02*
X012481Y003204D01*
X012485Y003302D02*
X012580Y003302D01*
X012538Y003401D02*
X012660Y003401D01*
X012619Y003598D02*
X012579Y003598D01*
X012576Y003696D02*
X012621Y003696D01*
X012662Y003795D02*
X012536Y003795D01*
X012480Y003893D02*
X012718Y003893D01*
X012817Y003992D02*
X012381Y003992D01*
X012363Y004189D02*
X012835Y004189D01*
X012827Y004192D02*
X013003Y004119D01*
X013194Y004119D01*
X013371Y004192D01*
X013506Y004327D01*
X013579Y004503D01*
X013579Y004694D01*
X013506Y004871D01*
X013371Y005006D01*
X013194Y005079D01*
X013003Y005079D01*
X012891Y005032D01*
X012653Y005271D01*
X011698Y005271D01*
X011604Y005177D01*
X011186Y004759D01*
X010063Y004759D01*
X010057Y004773D01*
X009970Y004860D01*
X009857Y004907D01*
X009734Y004907D01*
X009621Y004860D01*
X009534Y004773D01*
X009488Y004660D01*
X009488Y004538D01*
X009526Y004444D01*
X007106Y004444D01*
X006948Y004602D01*
X006954Y004616D01*
X006954Y004739D01*
X006907Y004852D01*
X006821Y004939D01*
X006707Y004986D01*
X006585Y004986D01*
X006472Y004939D01*
X006385Y004852D01*
X006338Y004739D01*
X006338Y004616D01*
X006385Y004503D01*
X006472Y004416D01*
X006585Y004369D01*
X006707Y004369D01*
X006722Y004375D01*
X006973Y004124D01*
X010059Y004124D01*
X010153Y004218D01*
X010177Y004242D01*
X011397Y004242D01*
X011491Y004336D01*
X011594Y004439D01*
X011646Y004439D01*
X011692Y004327D01*
X011827Y004192D01*
X012003Y004119D01*
X012194Y004119D01*
X012371Y004192D01*
X012506Y004327D01*
X012579Y004503D01*
X012579Y004694D01*
X012506Y004871D01*
X012426Y004951D01*
X012521Y004951D01*
X012665Y004806D01*
X012619Y004694D01*
X012619Y004503D01*
X012692Y004327D01*
X012827Y004192D01*
X012732Y004287D02*
X012466Y004287D01*
X012530Y004386D02*
X012668Y004386D01*
X012627Y004484D02*
X012571Y004484D01*
X012579Y004583D02*
X012619Y004583D01*
X012619Y004681D02*
X012579Y004681D01*
X012544Y004780D02*
X012654Y004780D01*
X012593Y004878D02*
X012498Y004878D01*
X012587Y005111D02*
X013099Y004599D01*
X013466Y004287D02*
X013680Y004287D01*
X013680Y004189D02*
X013363Y004189D01*
X013381Y003992D02*
X013680Y003992D01*
X013680Y004090D02*
X000400Y004090D01*
X000400Y003992D02*
X011817Y003992D01*
X011718Y003893D02*
X006488Y003893D01*
X006292Y003654D02*
X012040Y003654D01*
X012099Y003595D01*
X011713Y003302D02*
X011634Y003302D01*
X011660Y003401D02*
X011535Y003401D01*
X011732Y003204D02*
X011811Y003204D01*
X011252Y003457D02*
X006685Y003457D01*
X006449Y003221D01*
X005977Y003221D01*
X006198Y003007D02*
X009817Y003007D01*
X009803Y003105D02*
X006560Y003105D01*
X006658Y003204D02*
X009819Y003204D01*
X009870Y002908D02*
X000400Y002908D01*
X000400Y002810D02*
X009951Y002810D01*
X009951Y002711D02*
X000400Y002711D01*
X000400Y002613D02*
X003752Y002613D01*
X003685Y002514D02*
X000400Y002514D01*
X000400Y002416D02*
X003661Y002416D01*
X003667Y002317D02*
X000400Y002317D01*
X000400Y002219D02*
X003709Y002219D01*
X003809Y002120D02*
X000400Y002120D01*
X000400Y002022D02*
X003809Y002022D01*
X003809Y001923D02*
X000400Y001923D01*
X000400Y001825D02*
X003809Y001825D01*
X003809Y001726D02*
X000400Y001726D01*
X000400Y001628D02*
X003790Y001628D01*
X003701Y001529D02*
X000400Y001529D01*
X000400Y001431D02*
X003661Y001431D01*
X003661Y001332D02*
X000400Y001332D01*
X000400Y001234D02*
X003692Y001234D01*
X003769Y001135D02*
X000400Y001135D01*
X001292Y002079D02*
X001292Y002158D01*
X000400Y003007D02*
X005755Y003007D01*
X005691Y003105D02*
X000400Y003105D01*
X000400Y003204D02*
X005669Y003204D01*
X005677Y003302D02*
X000400Y003302D01*
X000400Y003401D02*
X005721Y003401D01*
X005843Y003499D02*
X000400Y003499D01*
X000400Y003598D02*
X005984Y003598D01*
X005984Y003696D02*
X000400Y003696D01*
X000400Y003795D02*
X006016Y003795D01*
X006095Y003893D02*
X000400Y003893D01*
X000400Y004189D02*
X006909Y004189D01*
X006810Y004287D02*
X000400Y004287D01*
X000400Y004386D02*
X006546Y004386D01*
X006404Y004484D02*
X000400Y004484D01*
X000400Y004583D02*
X006352Y004583D01*
X006338Y004681D02*
X000400Y004681D01*
X000400Y004780D02*
X006355Y004780D01*
X006411Y004878D02*
X000400Y004878D01*
X000400Y004977D02*
X006563Y004977D01*
X006729Y004977D02*
X011404Y004977D01*
X011502Y005075D02*
X000400Y005075D01*
X000400Y005174D02*
X011601Y005174D01*
X011764Y005111D02*
X012587Y005111D01*
X012750Y005174D02*
X013680Y005174D01*
X013680Y005272D02*
X000400Y005272D01*
X000400Y005371D02*
X013680Y005371D01*
X013680Y005469D02*
X000400Y005469D01*
X000400Y005568D02*
X013680Y005568D01*
X013680Y005075D02*
X013203Y005075D01*
X012994Y005075D02*
X012849Y005075D01*
X013400Y004977D02*
X013680Y004977D01*
X013680Y004878D02*
X013498Y004878D01*
X013544Y004780D02*
X013680Y004780D01*
X013680Y004681D02*
X013579Y004681D01*
X013579Y004583D02*
X013680Y004583D01*
X013680Y004484D02*
X013571Y004484D01*
X013530Y004386D02*
X013680Y004386D01*
X012099Y004599D02*
X011528Y004599D01*
X011331Y004402D01*
X010111Y004402D01*
X009993Y004284D01*
X007040Y004284D01*
X006646Y004678D01*
X006881Y004878D02*
X009665Y004878D01*
X009541Y004780D02*
X006937Y004780D01*
X006954Y004681D02*
X009496Y004681D01*
X009488Y004583D02*
X006967Y004583D01*
X007066Y004484D02*
X009510Y004484D01*
X009796Y004599D02*
X011252Y004599D01*
X011764Y005111D01*
X011305Y004878D02*
X009927Y004878D01*
X010051Y004780D02*
X011207Y004780D01*
X011541Y004386D02*
X011668Y004386D01*
X011732Y004287D02*
X011442Y004287D01*
X011835Y004189D02*
X010123Y004189D01*
X010307Y005071D02*
X010544Y005111D01*
X010111Y003103D02*
X010111Y002197D01*
X009893Y002416D02*
X004277Y002416D01*
X004270Y002317D02*
X009827Y002317D01*
X009803Y002219D02*
X004229Y002219D01*
X004129Y002120D02*
X009809Y002120D01*
X009851Y002022D02*
X004129Y002022D01*
X004129Y001923D02*
X009968Y001923D01*
X009951Y002514D02*
X004253Y002514D01*
X004186Y002613D02*
X009951Y002613D01*
X010032Y000583D02*
X010189Y000544D01*
X007237Y000583D02*
X007237Y000622D01*
X007197Y000662D01*
X004638Y002552D02*
X004638Y002591D01*
X003969Y002394D02*
X003969Y001370D01*
X003418Y000780D02*
X003378Y000819D01*
X002079Y000780D02*
X002040Y000819D01*
X002040Y000859D01*
X001961Y004717D02*
X001922Y004756D01*
X006804Y005307D02*
X006882Y005307D01*
M02*
