G75*
G70*
%OFA0B0*%
%FSLAX24Y24*%
%IPPOS*%
%LPD*%
%AMOC8*
5,1,8,0,0,1.08239X$1,22.5*
%
%ADD10C,0.1162*%
%ADD11R,0.2107X0.2107*%
%ADD12C,0.0178*%
%ADD13R,0.0493X0.0454*%
%ADD14R,0.0170X0.0316*%
%ADD15R,0.0316X0.0170*%
%ADD16R,0.0454X0.0493*%
%ADD17R,0.0178X0.0375*%
%ADD18R,0.0375X0.0178*%
%ADD19R,0.0394X0.0394*%
%ADD20C,0.0800*%
%ADD21C,0.0560*%
%ADD22R,0.0560X0.0560*%
%ADD23R,0.0375X0.0375*%
%ADD24R,0.0233X0.0371*%
%ADD25C,0.1160*%
%ADD26R,0.9903X0.0454*%
%ADD27R,1.1477X0.5572*%
%ADD28R,0.0651X0.0572*%
%ADD29C,0.0456*%
D10*
X012796Y012788D03*
D11*
X007776Y002945D03*
D12*
X007678Y001705D02*
X007678Y001547D01*
X007875Y001547D02*
X007875Y001705D01*
X008071Y001705D02*
X008071Y001547D01*
X008268Y001547D02*
X008268Y001705D01*
X008465Y001705D02*
X008465Y001547D01*
X008662Y001547D02*
X008662Y001705D01*
X008859Y001705D02*
X008859Y001547D01*
X009016Y001863D02*
X009174Y001863D01*
X009174Y002059D02*
X009016Y002059D01*
X009016Y002256D02*
X009174Y002256D01*
X009174Y002453D02*
X009016Y002453D01*
X009016Y002650D02*
X009174Y002650D01*
X009174Y002847D02*
X009016Y002847D01*
X009016Y003044D02*
X009174Y003044D01*
X009174Y003241D02*
X009016Y003241D01*
X009016Y003437D02*
X009174Y003437D01*
X009174Y003634D02*
X009016Y003634D01*
X009016Y003831D02*
X009174Y003831D01*
X009174Y004028D02*
X009016Y004028D01*
X008859Y004185D02*
X008859Y004343D01*
X008662Y004343D02*
X008662Y004185D01*
X008465Y004185D02*
X008465Y004343D01*
X008268Y004343D02*
X008268Y004185D01*
X008071Y004185D02*
X008071Y004343D01*
X007875Y004343D02*
X007875Y004185D01*
X007678Y004185D02*
X007678Y004343D01*
X007481Y004343D02*
X007481Y004185D01*
X007284Y004185D02*
X007284Y004343D01*
X007087Y004343D02*
X007087Y004185D01*
X006890Y004185D02*
X006890Y004343D01*
X006693Y004343D02*
X006693Y004185D01*
X006536Y004028D02*
X006378Y004028D01*
X006378Y003831D02*
X006536Y003831D01*
X006536Y003634D02*
X006378Y003634D01*
X006378Y003437D02*
X006536Y003437D01*
X006536Y003241D02*
X006378Y003241D01*
X006378Y003044D02*
X006536Y003044D01*
X006536Y002847D02*
X006378Y002847D01*
X006378Y002650D02*
X006536Y002650D01*
X006536Y002453D02*
X006378Y002453D01*
X006378Y002256D02*
X006536Y002256D01*
X006536Y002059D02*
X006378Y002059D01*
X006378Y001863D02*
X006536Y001863D01*
X006693Y001705D02*
X006693Y001547D01*
X006890Y001547D02*
X006890Y001705D01*
X007087Y001705D02*
X007087Y001547D01*
X007284Y001547D02*
X007284Y001705D01*
X007481Y001705D02*
X007481Y001547D01*
D13*
X008563Y001036D03*
X009233Y001036D03*
X010158Y003241D03*
X010827Y003241D03*
X010985Y004402D03*
X010985Y005071D03*
X009292Y004874D03*
X008623Y004874D03*
X007914Y004874D03*
X007245Y004874D03*
X006083Y004520D03*
X005414Y004520D03*
X005394Y002276D03*
X005394Y001764D03*
X004725Y001764D03*
X004725Y002276D03*
X004174Y002276D03*
X004174Y001764D03*
X003504Y001764D03*
X003504Y002276D03*
X003721Y000819D03*
X004390Y000819D03*
X005611Y001056D03*
X006280Y001056D03*
D14*
X002225Y001559D03*
X002028Y001559D03*
X001831Y001559D03*
X001634Y001559D03*
X001634Y002638D03*
X001831Y002638D03*
X002028Y002638D03*
X002225Y002638D03*
D15*
X002469Y002394D03*
X002469Y002197D03*
X002469Y002000D03*
X002469Y001804D03*
X001390Y001804D03*
X001390Y002000D03*
X001390Y002197D03*
X001390Y002394D03*
D16*
X000886Y000878D03*
X000886Y001548D03*
X001693Y003457D03*
X001182Y003890D03*
X001693Y004126D03*
X001182Y004559D03*
X004390Y003969D03*
X004390Y003300D03*
X009902Y001272D03*
X009902Y000603D03*
X010611Y000603D03*
X010611Y001272D03*
D17*
X003642Y003477D03*
X003445Y003477D03*
X003249Y003477D03*
X003052Y003477D03*
X002855Y003477D03*
X002658Y003477D03*
X002658Y005052D03*
X002855Y005052D03*
X003052Y005052D03*
X003249Y005052D03*
X003445Y005052D03*
X003642Y005052D03*
D18*
X003937Y004756D03*
X003937Y004559D03*
X003937Y004363D03*
X003937Y004166D03*
X003937Y003969D03*
X003937Y003772D03*
X002363Y003772D03*
X002363Y003969D03*
X002363Y004166D03*
X002363Y004363D03*
X002363Y004559D03*
X002363Y004756D03*
D19*
X003150Y004264D03*
D20*
X012107Y004599D03*
X012107Y003595D03*
X013107Y003595D03*
X013107Y004599D03*
D21*
X012441Y002245D02*
X012934Y002158D01*
X013426Y002071D01*
X011890Y001115D02*
X011977Y000622D01*
X011890Y001115D02*
X011803Y001607D01*
D22*
G36*
X011663Y000791D02*
X011566Y001342D01*
X012117Y001439D01*
X012214Y000888D01*
X011663Y000791D01*
G37*
G36*
X013161Y001834D02*
X012610Y001931D01*
X012707Y002482D01*
X013258Y002385D01*
X013161Y001834D01*
G37*
D23*
X006871Y000563D03*
X006280Y000563D03*
D24*
X007276Y000565D03*
X007276Y001034D03*
X008040Y001034D03*
X008040Y000565D03*
D25*
X013347Y007040D03*
X007048Y013339D03*
D26*
X006457Y012552D03*
X006457Y005859D03*
D27*
X006457Y009205D03*
D28*
X013367Y008683D03*
X013367Y007935D03*
D29*
X013367Y009205D03*
X009981Y005130D03*
X009430Y004343D03*
X009961Y003851D03*
X010689Y003851D03*
X011260Y003949D03*
X010493Y002748D03*
X009764Y001784D03*
X008918Y000583D03*
X007776Y002945D03*
X006063Y002414D03*
X006063Y001725D03*
X005434Y000583D03*
X004902Y000819D03*
X003189Y000819D03*
X002323Y000957D03*
X001831Y001036D03*
X001359Y000957D03*
X002973Y002650D03*
X005099Y003044D03*
X006004Y003241D03*
X005414Y003969D03*
X004489Y005111D03*
X006713Y004874D03*
X001199Y005859D03*
X001219Y012552D03*
M02*
