%
M48
M72
T01C0.0236
T02C0.0400
T03C0.1102
%
T01
X2040Y859
X1292Y2158
X3418Y780
X3969Y1370
X3969Y2394
X4638Y2552
X5977Y3221
X6292Y3654
X6646Y4678
X6882Y5307
X8241Y2945
X9796Y4599
X10544Y5111
X10111Y3103
X10111Y2197
X10032Y583
X11795Y1607
X11882Y1115
X11969Y622
X13418Y2071
X12926Y2158
X12433Y2245
X12591Y5465
X7237Y583
X1961Y4717
X662Y6764
X1882Y7630
T02
X12099Y4599
X12099Y3595
X13099Y3595
X13099Y4599
T03
X12788Y12788
M30
