G75*
%MOIN*%
%OFA0B0*%
%FSLAX24Y24*%
%IPPOS*%
%LPD*%
%AMOC8*
5,1,8,0,0,1.08239X$1,22.5*
%
%ADD10C,0.0100*%
%ADD11C,0.0000*%
%ADD12C,0.0080*%
%ADD13C,0.0010*%
%ADD14C,0.0060*%
%ADD15C,0.0050*%
D10*
X000217Y000247D02*
X000217Y014027D01*
X013997Y014027D01*
X013997Y000247D01*
X000217Y000247D01*
D11*
X012304Y012885D02*
X012306Y012932D01*
X012312Y012978D01*
X012322Y013024D01*
X012335Y013069D01*
X012353Y013112D01*
X012374Y013154D01*
X012398Y013194D01*
X012426Y013231D01*
X012457Y013266D01*
X012491Y013299D01*
X012527Y013328D01*
X012566Y013354D01*
X012607Y013377D01*
X012650Y013396D01*
X012694Y013412D01*
X012739Y013424D01*
X012785Y013432D01*
X012832Y013436D01*
X012878Y013436D01*
X012925Y013432D01*
X012971Y013424D01*
X013016Y013412D01*
X013060Y013396D01*
X013103Y013377D01*
X013144Y013354D01*
X013183Y013328D01*
X013219Y013299D01*
X013253Y013266D01*
X013284Y013231D01*
X013312Y013194D01*
X013336Y013154D01*
X013357Y013112D01*
X013375Y013069D01*
X013388Y013024D01*
X013398Y012978D01*
X013404Y012932D01*
X013406Y012885D01*
X013404Y012838D01*
X013398Y012792D01*
X013388Y012746D01*
X013375Y012701D01*
X013357Y012658D01*
X013336Y012616D01*
X013312Y012576D01*
X013284Y012539D01*
X013253Y012504D01*
X013219Y012471D01*
X013183Y012442D01*
X013144Y012416D01*
X013103Y012393D01*
X013060Y012374D01*
X013016Y012358D01*
X012971Y012346D01*
X012925Y012338D01*
X012878Y012334D01*
X012832Y012334D01*
X012785Y012338D01*
X012739Y012346D01*
X012694Y012358D01*
X012650Y012374D01*
X012607Y012393D01*
X012566Y012416D01*
X012527Y012442D01*
X012491Y012471D01*
X012457Y012504D01*
X012426Y012539D01*
X012398Y012576D01*
X012374Y012616D01*
X012353Y012658D01*
X012335Y012701D01*
X012322Y012746D01*
X012312Y012792D01*
X012306Y012838D01*
X012304Y012885D01*
D12*
X002476Y004354D02*
X002476Y004197D01*
X002436Y004197D01*
X002436Y004354D01*
X002476Y004354D01*
D13*
X003068Y004160D02*
X003093Y004185D01*
X003143Y004185D01*
X003168Y004160D01*
X003215Y004160D02*
X003215Y004110D01*
X003240Y004085D01*
X003315Y004085D01*
X003265Y004085D02*
X003215Y004035D01*
X003168Y004035D02*
X003068Y004135D01*
X003068Y004160D01*
X003068Y004035D02*
X003168Y004035D01*
X003215Y004160D02*
X003240Y004185D01*
X003315Y004185D01*
X003315Y004035D01*
X003363Y004060D02*
X003363Y004160D01*
X003388Y004185D01*
X003438Y004185D01*
X003463Y004160D01*
X003463Y004060D01*
X003438Y004035D01*
X003388Y004035D01*
X003363Y004060D01*
X003510Y004060D02*
X003535Y004035D01*
X003585Y004035D01*
X003610Y004060D01*
X003657Y004035D02*
X003657Y004185D01*
X003610Y004160D02*
X003610Y004135D01*
X003585Y004110D01*
X003535Y004110D01*
X003510Y004085D01*
X003510Y004060D01*
X003510Y004160D02*
X003535Y004185D01*
X003585Y004185D01*
X003610Y004160D01*
X003657Y004035D02*
X003757Y004185D01*
X003757Y004035D01*
X003805Y004035D02*
X003905Y004035D01*
X003905Y004185D01*
X003805Y004185D01*
X003855Y004110D02*
X003905Y004110D01*
X003952Y004085D02*
X003952Y004060D01*
X003977Y004035D01*
X004027Y004035D01*
X004052Y004060D01*
X004099Y004035D02*
X004099Y004185D01*
X004052Y004160D02*
X004052Y004135D01*
X004027Y004110D01*
X003977Y004110D01*
X003952Y004085D01*
X003952Y004160D02*
X003977Y004185D01*
X004027Y004185D01*
X004052Y004160D01*
X004099Y004035D02*
X004199Y004185D01*
X004199Y004035D01*
X004247Y004060D02*
X004247Y004185D01*
X004347Y004185D02*
X004347Y004060D01*
X004322Y004035D01*
X004272Y004035D01*
X004247Y004060D01*
X004394Y004060D02*
X004419Y004035D01*
X004469Y004035D01*
X004494Y004060D01*
X004469Y004110D02*
X004419Y004110D01*
X004394Y004085D01*
X004394Y004060D01*
X004469Y004110D02*
X004494Y004135D01*
X004494Y004160D01*
X004469Y004185D01*
X004419Y004185D01*
X004394Y004160D01*
X003338Y003463D02*
X003338Y003313D01*
X003338Y003363D02*
X003263Y003363D01*
X003238Y003388D01*
X003238Y003438D01*
X003263Y003463D01*
X003338Y003463D01*
X003288Y003363D02*
X003238Y003313D01*
X003191Y003338D02*
X003166Y003313D01*
X003116Y003313D01*
X003091Y003338D01*
X003091Y003388D01*
X003116Y003413D01*
X003141Y003413D01*
X003191Y003388D01*
X003191Y003463D01*
X003091Y003463D01*
X006659Y005153D02*
X006759Y005053D01*
X006759Y005028D01*
X006807Y005053D02*
X006832Y005028D01*
X006882Y005028D01*
X006907Y005053D01*
X006907Y005153D01*
X006882Y005178D01*
X006832Y005178D01*
X006807Y005153D01*
X006759Y005178D02*
X006659Y005178D01*
X006659Y005153D01*
X010215Y003688D02*
X010215Y003638D01*
X010240Y003613D01*
X010265Y003613D01*
X010290Y003638D01*
X010290Y003688D01*
X010265Y003713D01*
X010240Y003713D01*
X010215Y003688D01*
X010290Y003688D02*
X010315Y003713D01*
X010340Y003713D01*
X010365Y003688D01*
X010365Y003638D01*
X010340Y003613D01*
X010315Y003613D01*
X010290Y003638D01*
X010290Y003566D02*
X010265Y003541D01*
X010265Y003466D01*
X010215Y003466D02*
X010365Y003466D01*
X010365Y003541D01*
X010340Y003566D01*
X010290Y003566D01*
X010265Y003516D02*
X010215Y003566D01*
X010362Y001621D02*
X010362Y001521D01*
X010463Y001621D01*
X010488Y001621D01*
X010513Y001596D01*
X010513Y001546D01*
X010488Y001521D01*
X010513Y001423D02*
X010362Y001423D01*
X010362Y001373D02*
X010362Y001473D01*
X010463Y001373D02*
X010513Y001423D01*
X010488Y001326D02*
X010513Y001301D01*
X010513Y001251D01*
X010488Y001226D01*
X010387Y001226D01*
X010362Y001251D01*
X010362Y001301D01*
X010387Y001326D01*
D14*
X010269Y001403D02*
X010269Y001639D01*
X009796Y001639D02*
X009796Y001403D01*
X009905Y003459D02*
X009905Y003696D01*
X009433Y003696D02*
X009433Y003459D01*
X007478Y004582D02*
X007478Y004818D01*
X007006Y004818D02*
X007006Y004582D01*
X002637Y003960D02*
X002401Y003960D01*
X002401Y003488D02*
X002637Y003488D01*
D15*
X007973Y003011D02*
X008178Y003011D01*
X007973Y003011D02*
X007973Y004282D01*
X009265Y004282D01*
X009265Y003019D01*
X009044Y003019D01*
X008713Y003015D02*
X008521Y003015D01*
X008310Y002511D02*
X008889Y002511D01*
X008889Y001933D01*
X008310Y001933D01*
X008310Y002511D01*
X008361Y002487D02*
X008328Y002452D01*
M02*
