G75*
%MOIN*%
%OFA0B0*%
%FSLAX24Y24*%
%IPPOS*%
%LPD*%
%AMOC8*
5,1,8,0,0,1.08239X$1,22.5*
%
%ADD10R,0.0315X0.0315*%
%ADD11R,0.0315X0.0472*%
%ADD12R,0.0472X0.0315*%
%ADD13R,0.1500X0.0760*%
%ADD14R,0.0394X0.0591*%
%ADD15C,0.0050*%
%ADD16R,0.0531X0.0571*%
%ADD17R,0.0531X0.0315*%
%ADD18R,0.0453X0.0965*%
%ADD19R,0.0217X0.0249*%
%ADD20C,0.0106*%
D10*
X002220Y004276D03*
X002810Y004276D03*
D11*
X002165Y003724D03*
X002873Y003724D03*
D12*
X007242Y004346D03*
X007242Y005055D03*
X009669Y003932D03*
X009669Y003223D03*
X010032Y001875D03*
X010032Y001167D03*
D13*
X002069Y008299D03*
X010464Y011350D03*
D14*
X011684Y011941D03*
X000849Y007708D03*
D15*
X001274Y007717D02*
X010334Y007717D01*
X010285Y007765D02*
X001275Y007765D01*
X001275Y007814D02*
X010236Y007814D01*
X010187Y007862D02*
X001275Y007862D01*
X001275Y007911D02*
X010139Y007911D01*
X010090Y007959D02*
X001275Y007959D01*
X001275Y008008D02*
X010041Y008008D01*
X009992Y008056D02*
X001275Y008056D01*
X001276Y008105D02*
X009944Y008105D01*
X009895Y008153D02*
X001276Y008153D01*
X001276Y008202D02*
X009846Y008202D01*
X009797Y008250D02*
X001276Y008250D01*
X001276Y008299D02*
X009749Y008299D01*
X009700Y008347D02*
X001276Y008347D01*
X001276Y008396D02*
X009651Y008396D01*
X009603Y008444D02*
X001277Y008444D01*
X001277Y008493D02*
X009554Y008493D01*
X009505Y008541D02*
X001277Y008541D01*
X001277Y008590D02*
X009456Y008590D01*
X009408Y008638D02*
X001277Y008638D01*
X001277Y008687D02*
X009359Y008687D01*
X009333Y008712D02*
X008048Y009204D01*
X006731Y009605D01*
X005389Y009913D01*
X004030Y010127D01*
X002658Y010245D01*
X001282Y010267D01*
X001270Y006322D01*
X011735Y006322D01*
X009333Y008712D01*
X009273Y008735D02*
X001277Y008735D01*
X001278Y008784D02*
X009146Y008784D01*
X009020Y008832D02*
X001278Y008832D01*
X001278Y008881D02*
X008893Y008881D01*
X008766Y008929D02*
X001278Y008929D01*
X001278Y008978D02*
X008640Y008978D01*
X008513Y009026D02*
X001278Y009026D01*
X001278Y009075D02*
X008386Y009075D01*
X008260Y009123D02*
X001279Y009123D01*
X001279Y009172D02*
X008133Y009172D01*
X007996Y009220D02*
X001279Y009220D01*
X001279Y009269D02*
X007837Y009269D01*
X007677Y009317D02*
X001279Y009317D01*
X001279Y009366D02*
X007518Y009366D01*
X007359Y009414D02*
X001279Y009414D01*
X001280Y009463D02*
X007200Y009463D01*
X007041Y009511D02*
X001280Y009511D01*
X001280Y009560D02*
X006881Y009560D01*
X006719Y009608D02*
X001280Y009608D01*
X001280Y009657D02*
X006508Y009657D01*
X006297Y009705D02*
X001280Y009705D01*
X001280Y009754D02*
X006086Y009754D01*
X005875Y009802D02*
X001281Y009802D01*
X001281Y009851D02*
X005663Y009851D01*
X005452Y009899D02*
X001281Y009899D01*
X001281Y009948D02*
X005173Y009948D01*
X005321Y010190D02*
X011254Y010190D01*
X011253Y010142D02*
X005480Y010142D01*
X005639Y010093D02*
X011253Y010093D01*
X011253Y010045D02*
X005799Y010045D01*
X005802Y010043D02*
X007144Y009735D01*
X008503Y009522D01*
X009875Y009404D01*
X011251Y009382D01*
X011263Y013327D01*
X000798Y013327D01*
X003200Y010937D01*
X004485Y010445D01*
X005802Y010043D01*
X006009Y009996D02*
X011253Y009996D01*
X011253Y009948D02*
X006220Y009948D01*
X006431Y009899D02*
X011253Y009899D01*
X011253Y009851D02*
X006642Y009851D01*
X006853Y009802D02*
X011252Y009802D01*
X011252Y009754D02*
X007064Y009754D01*
X007337Y009705D02*
X011252Y009705D01*
X011252Y009657D02*
X007645Y009657D01*
X007954Y009608D02*
X011252Y009608D01*
X011252Y009560D02*
X008263Y009560D01*
X008627Y009511D02*
X011252Y009511D01*
X011251Y009463D02*
X009191Y009463D01*
X009754Y009414D02*
X011251Y009414D01*
X011254Y010239D02*
X005162Y010239D01*
X005003Y010287D02*
X011254Y010287D01*
X011254Y010336D02*
X004843Y010336D01*
X004684Y010384D02*
X011254Y010384D01*
X011254Y010433D02*
X004525Y010433D01*
X004390Y010481D02*
X011254Y010481D01*
X011255Y010530D02*
X004264Y010530D01*
X004137Y010578D02*
X011255Y010578D01*
X011255Y010627D02*
X004010Y010627D01*
X003884Y010675D02*
X011255Y010675D01*
X011255Y010724D02*
X003757Y010724D01*
X003630Y010772D02*
X011255Y010772D01*
X011255Y010821D02*
X003504Y010821D01*
X003377Y010869D02*
X011256Y010869D01*
X011256Y010918D02*
X003250Y010918D01*
X003171Y010966D02*
X011256Y010966D01*
X011256Y011015D02*
X003122Y011015D01*
X003073Y011063D02*
X011256Y011063D01*
X011256Y011112D02*
X003024Y011112D01*
X002976Y011160D02*
X011256Y011160D01*
X011257Y011209D02*
X002927Y011209D01*
X002878Y011257D02*
X011257Y011257D01*
X011257Y011306D02*
X002829Y011306D01*
X002781Y011354D02*
X011257Y011354D01*
X011257Y011403D02*
X002732Y011403D01*
X002683Y011451D02*
X011257Y011451D01*
X011257Y011500D02*
X002634Y011500D01*
X002586Y011548D02*
X011258Y011548D01*
X011258Y011597D02*
X002537Y011597D01*
X002488Y011645D02*
X011258Y011645D01*
X011258Y011694D02*
X002439Y011694D01*
X002391Y011742D02*
X011258Y011742D01*
X011258Y011791D02*
X002342Y011791D01*
X002293Y011839D02*
X011258Y011839D01*
X011259Y011888D02*
X002244Y011888D01*
X002196Y011936D02*
X011259Y011936D01*
X011259Y011985D02*
X002147Y011985D01*
X002098Y012033D02*
X011259Y012033D01*
X011259Y012082D02*
X002049Y012082D01*
X002001Y012130D02*
X011259Y012130D01*
X011259Y012179D02*
X001952Y012179D01*
X001903Y012227D02*
X011260Y012227D01*
X011260Y012276D02*
X001855Y012276D01*
X001806Y012324D02*
X011260Y012324D01*
X011260Y012373D02*
X001757Y012373D01*
X001708Y012421D02*
X011260Y012421D01*
X011260Y012470D02*
X001660Y012470D01*
X001611Y012518D02*
X011261Y012518D01*
X011261Y012567D02*
X001562Y012567D01*
X001513Y012615D02*
X011261Y012615D01*
X011261Y012664D02*
X001465Y012664D01*
X001416Y012712D02*
X011261Y012712D01*
X011261Y012761D02*
X001367Y012761D01*
X001318Y012809D02*
X011261Y012809D01*
X011262Y012858D02*
X001270Y012858D01*
X001221Y012906D02*
X011262Y012906D01*
X011262Y012955D02*
X001172Y012955D01*
X001123Y013003D02*
X011262Y013003D01*
X011262Y013052D02*
X001075Y013052D01*
X001026Y013100D02*
X011262Y013100D01*
X011262Y013149D02*
X000977Y013149D01*
X000928Y013197D02*
X011263Y013197D01*
X011263Y013246D02*
X000880Y013246D01*
X000831Y013294D02*
X011263Y013294D01*
X010382Y007668D02*
X001274Y007668D01*
X001274Y007620D02*
X010431Y007620D01*
X010480Y007571D02*
X001274Y007571D01*
X001274Y007523D02*
X010529Y007523D01*
X010577Y007474D02*
X001274Y007474D01*
X001273Y007425D02*
X010626Y007425D01*
X010675Y007377D02*
X001273Y007377D01*
X001273Y007328D02*
X010724Y007328D01*
X010772Y007280D02*
X001273Y007280D01*
X001273Y007231D02*
X010821Y007231D01*
X010870Y007183D02*
X001273Y007183D01*
X001273Y007134D02*
X010918Y007134D01*
X010967Y007086D02*
X001272Y007086D01*
X001272Y007037D02*
X011016Y007037D01*
X011065Y006989D02*
X001272Y006989D01*
X001272Y006940D02*
X011113Y006940D01*
X011162Y006892D02*
X001272Y006892D01*
X001272Y006843D02*
X011211Y006843D01*
X011260Y006795D02*
X001272Y006795D01*
X001271Y006746D02*
X011308Y006746D01*
X011357Y006698D02*
X001271Y006698D01*
X001271Y006649D02*
X011406Y006649D01*
X011455Y006601D02*
X001271Y006601D01*
X001271Y006552D02*
X011503Y006552D01*
X011552Y006504D02*
X001271Y006504D01*
X001271Y006455D02*
X011601Y006455D01*
X011650Y006407D02*
X001270Y006407D01*
X001270Y006358D02*
X011698Y006358D01*
X004864Y009996D02*
X001281Y009996D01*
X001281Y010045D02*
X004555Y010045D01*
X004246Y010093D02*
X001281Y010093D01*
X001282Y010142D02*
X003862Y010142D01*
X003299Y010190D02*
X001282Y010190D01*
X001282Y010239D02*
X002735Y010239D01*
D16*
X008347Y003940D03*
D17*
X008345Y003421D03*
D18*
X008914Y003743D03*
D19*
X008879Y003074D03*
X008367Y003074D03*
D20*
X008403Y002419D03*
X008600Y002419D03*
X008796Y002419D03*
X008796Y002222D03*
X008600Y002222D03*
X008600Y002025D03*
X008796Y002025D03*
X008403Y002025D03*
X008403Y002222D03*
M02*
