%
M48
M72
T01C0.0197
T02C0.0236
T03C0.0400
T04C0.1102
%
T01
X1015Y1526
X1883Y2793
X2954Y2789
X3845Y3559
X2235Y4866
X1726Y4850
X4635Y5773
X6492Y4273
X8150Y2727
X9376Y1281
X9259Y850
X8613Y858
X8191Y854
X7595Y1131
X6699Y1382
X4692Y1929
X8622Y5655
X9854Y4358
X10127Y5028
X11439Y4185
X12419Y3089
X11184Y2806
X9979Y2393
X11593Y811
X13350Y4725
X11852Y10849
T02
X12539Y2301
X13031Y2214
X13523Y2127
X12142Y1699
X12229Y1206
X12315Y714
T03
X12359Y4969
X11359Y4969
X4281Y4880
X3281Y4880
T04
X12855Y12885
M30
