G75*
%MOIN*%
%OFA0B0*%
%FSLAX24Y24*%
%IPPOS*%
%LPD*%
%AMOC8*
5,1,8,0,0,1.08239X$1,22.5*
%
%ADD10R,0.0177X0.0106*%
%ADD11R,0.0106X0.0177*%
%ADD12R,0.0472X0.0315*%
%ADD13R,0.0315X0.0472*%
%ADD14R,0.2047X0.2047*%
%ADD15C,0.0118*%
%ADD16R,0.0315X0.0315*%
%ADD17R,0.0354X0.0276*%
%ADD18R,0.0394X0.0610*%
%ADD19C,0.1100*%
%ADD20R,0.1500X0.0760*%
%ADD21R,0.0394X0.0591*%
%ADD22C,0.0050*%
%ADD23R,0.0173X0.0311*%
D10*
X001844Y001012D03*
X001844Y001181D03*
X001844Y001351D03*
X001844Y001520D03*
X001844Y001689D03*
X001844Y001859D03*
X001844Y002028D03*
X001844Y002197D03*
X002808Y002197D03*
X002808Y002028D03*
X002808Y001859D03*
X002808Y001689D03*
X002808Y001520D03*
X002808Y001351D03*
X002808Y001181D03*
X002808Y001012D03*
D11*
X002580Y001024D03*
X002411Y001024D03*
X002241Y001024D03*
X002072Y001024D03*
X002072Y002185D03*
X002241Y002185D03*
X002411Y002185D03*
X002580Y002185D03*
D12*
X003535Y001546D03*
X003535Y000838D03*
X004280Y000821D03*
X004280Y001530D03*
X005119Y001535D03*
X005119Y000826D03*
X005933Y000864D03*
X005933Y001572D03*
X002984Y003231D03*
X002984Y003940D03*
X001203Y003916D03*
X001203Y003208D03*
X005129Y004745D03*
X005129Y005454D03*
X010625Y005751D03*
X010625Y005043D03*
X013321Y004012D03*
X013321Y003303D03*
D13*
X000675Y000995D03*
X001383Y000995D03*
X001383Y002310D03*
X000674Y002310D03*
X004337Y003559D03*
X005046Y003559D03*
X010288Y004226D03*
X010996Y004226D03*
X010743Y003485D03*
X011451Y003485D03*
X011955Y003981D03*
X012663Y003981D03*
X011173Y001821D03*
X010464Y001821D03*
D14*
X008230Y002991D03*
D15*
X006990Y003089D02*
X006832Y003089D01*
X006832Y002892D02*
X006990Y002892D01*
X006990Y002696D02*
X006832Y002696D01*
X006832Y002499D02*
X006990Y002499D01*
X006990Y002302D02*
X006832Y002302D01*
X006832Y002105D02*
X006990Y002105D01*
X006990Y001908D02*
X006832Y001908D01*
X007148Y001751D02*
X007148Y001593D01*
X007345Y001593D02*
X007345Y001751D01*
X007541Y001751D02*
X007541Y001593D01*
X007738Y001593D02*
X007738Y001751D01*
X007935Y001751D02*
X007935Y001593D01*
X008132Y001593D02*
X008132Y001751D01*
X008329Y001751D02*
X008329Y001593D01*
X008526Y001593D02*
X008526Y001751D01*
X008723Y001751D02*
X008723Y001593D01*
X008919Y001593D02*
X008919Y001751D01*
X009116Y001751D02*
X009116Y001593D01*
X009313Y001593D02*
X009313Y001751D01*
X009470Y001908D02*
X009628Y001908D01*
X009628Y002105D02*
X009470Y002105D01*
X009470Y002302D02*
X009628Y002302D01*
X009628Y002499D02*
X009470Y002499D01*
X009470Y002696D02*
X009628Y002696D01*
X009628Y002892D02*
X009470Y002892D01*
X009470Y003089D02*
X009628Y003089D01*
X009628Y003286D02*
X009470Y003286D01*
X009470Y003483D02*
X009628Y003483D01*
X009628Y003680D02*
X009470Y003680D01*
X009470Y003877D02*
X009628Y003877D01*
X009628Y004074D02*
X009470Y004074D01*
X009313Y004231D02*
X009313Y004389D01*
X009116Y004389D02*
X009116Y004231D01*
X008919Y004231D02*
X008919Y004389D01*
X008723Y004389D02*
X008723Y004231D01*
X008526Y004231D02*
X008526Y004389D01*
X008329Y004389D02*
X008329Y004231D01*
X008132Y004231D02*
X008132Y004389D01*
X007935Y004389D02*
X007935Y004231D01*
X007738Y004231D02*
X007738Y004389D01*
X007541Y004389D02*
X007541Y004231D01*
X007345Y004231D02*
X007345Y004389D01*
X007148Y004389D02*
X007148Y004231D01*
X006990Y004074D02*
X006832Y004074D01*
X006832Y003877D02*
X006990Y003877D01*
X006990Y003680D02*
X006832Y003680D01*
X006832Y003483D02*
X006990Y003483D01*
X006990Y003286D02*
X006832Y003286D01*
D16*
X005743Y004757D03*
X005743Y005348D03*
X006666Y000813D03*
X007257Y000813D03*
D17*
X013360Y005557D03*
X013360Y006069D03*
D18*
X008020Y005539D03*
X006996Y005539D03*
D19*
X013552Y009714D03*
X006603Y013538D03*
D20*
X001855Y010875D03*
X011559Y008216D03*
D21*
X012780Y007626D03*
X000635Y011465D03*
D22*
X001060Y011451D02*
X010114Y011451D01*
X010163Y011500D02*
X001060Y011500D01*
X001060Y011548D02*
X010211Y011548D01*
X010260Y011597D02*
X001060Y011597D01*
X001060Y011645D02*
X010309Y011645D01*
X010358Y011694D02*
X001060Y011694D01*
X001060Y011742D02*
X010406Y011742D01*
X010455Y011791D02*
X001059Y011791D01*
X001059Y011839D02*
X010504Y011839D01*
X010552Y011888D02*
X001059Y011888D01*
X001059Y011936D02*
X010601Y011936D01*
X010650Y011985D02*
X001059Y011985D01*
X001059Y012033D02*
X010699Y012033D01*
X010747Y012082D02*
X001059Y012082D01*
X001058Y012130D02*
X010796Y012130D01*
X010845Y012179D02*
X001058Y012179D01*
X001058Y012227D02*
X010894Y012227D01*
X010942Y012276D02*
X001058Y012276D01*
X001058Y012324D02*
X010991Y012324D01*
X011040Y012373D02*
X001058Y012373D01*
X001057Y012421D02*
X011089Y012421D01*
X011137Y012470D02*
X001057Y012470D01*
X001057Y012518D02*
X011186Y012518D01*
X011235Y012567D02*
X001057Y012567D01*
X001057Y012615D02*
X011284Y012615D01*
X011332Y012664D02*
X001057Y012664D01*
X001057Y012712D02*
X011381Y012712D01*
X011430Y012761D02*
X001056Y012761D01*
X001056Y012809D02*
X011479Y012809D01*
X011521Y012851D02*
X009119Y010461D01*
X007834Y009969D01*
X006517Y009568D01*
X005175Y009260D01*
X003816Y009046D01*
X002444Y008928D01*
X001068Y008906D01*
X001056Y012851D01*
X011521Y012851D01*
X010065Y011403D02*
X001061Y011403D01*
X001061Y011354D02*
X010016Y011354D01*
X009968Y011306D02*
X001061Y011306D01*
X001061Y011257D02*
X009919Y011257D01*
X009870Y011209D02*
X001061Y011209D01*
X001061Y011160D02*
X009821Y011160D01*
X009773Y011112D02*
X001061Y011112D01*
X001062Y011063D02*
X009724Y011063D01*
X009675Y011015D02*
X001062Y011015D01*
X001062Y010966D02*
X009626Y010966D01*
X009578Y010918D02*
X001062Y010918D01*
X001062Y010869D02*
X009529Y010869D01*
X009480Y010821D02*
X001062Y010821D01*
X001062Y010772D02*
X009431Y010772D01*
X009383Y010724D02*
X001063Y010724D01*
X001063Y010675D02*
X009334Y010675D01*
X009285Y010627D02*
X001063Y010627D01*
X001063Y010578D02*
X009237Y010578D01*
X009188Y010530D02*
X001063Y010530D01*
X001063Y010481D02*
X009139Y010481D01*
X009044Y010433D02*
X001063Y010433D01*
X001064Y010384D02*
X008917Y010384D01*
X008791Y010336D02*
X001064Y010336D01*
X001064Y010287D02*
X008664Y010287D01*
X008537Y010239D02*
X001064Y010239D01*
X001064Y010190D02*
X008411Y010190D01*
X008284Y010142D02*
X001064Y010142D01*
X001064Y010093D02*
X008157Y010093D01*
X008031Y010045D02*
X001065Y010045D01*
X001065Y009996D02*
X007904Y009996D01*
X007763Y009948D02*
X001065Y009948D01*
X001065Y009899D02*
X007604Y009899D01*
X007444Y009851D02*
X001065Y009851D01*
X001065Y009802D02*
X007285Y009802D01*
X007126Y009754D02*
X001065Y009754D01*
X001066Y009705D02*
X006967Y009705D01*
X006808Y009657D02*
X001066Y009657D01*
X001066Y009608D02*
X006648Y009608D01*
X006699Y009463D02*
X012349Y009463D01*
X012349Y009511D02*
X006858Y009511D01*
X006898Y009523D02*
X008239Y009831D01*
X009599Y010045D01*
X010970Y010163D01*
X012347Y010185D01*
X012358Y006240D01*
X001894Y006240D01*
X004295Y008630D01*
X005581Y009122D01*
X006898Y009523D01*
X007056Y009560D02*
X012349Y009560D01*
X012348Y009608D02*
X007267Y009608D01*
X007478Y009657D02*
X012348Y009657D01*
X012348Y009705D02*
X007689Y009705D01*
X007901Y009754D02*
X012348Y009754D01*
X012348Y009802D02*
X008112Y009802D01*
X008362Y009851D02*
X012348Y009851D01*
X012347Y009899D02*
X008670Y009899D01*
X008979Y009948D02*
X012347Y009948D01*
X012347Y009996D02*
X009288Y009996D01*
X009596Y010045D02*
X012347Y010045D01*
X012347Y010093D02*
X010158Y010093D01*
X010721Y010142D02*
X012347Y010142D01*
X012349Y009414D02*
X006539Y009414D01*
X006480Y009560D02*
X001066Y009560D01*
X001066Y009511D02*
X006269Y009511D01*
X006380Y009366D02*
X012349Y009366D01*
X012349Y009317D02*
X006221Y009317D01*
X006062Y009269D02*
X012349Y009269D01*
X012350Y009220D02*
X005903Y009220D01*
X005743Y009172D02*
X012350Y009172D01*
X012350Y009123D02*
X005584Y009123D01*
X005457Y009075D02*
X012350Y009075D01*
X012350Y009026D02*
X005330Y009026D01*
X005204Y008978D02*
X012350Y008978D01*
X012350Y008929D02*
X005077Y008929D01*
X004950Y008881D02*
X012351Y008881D01*
X012351Y008832D02*
X004824Y008832D01*
X004697Y008784D02*
X012351Y008784D01*
X012351Y008735D02*
X004570Y008735D01*
X004443Y008687D02*
X012351Y008687D01*
X012351Y008638D02*
X004317Y008638D01*
X004255Y008590D02*
X012351Y008590D01*
X012352Y008541D02*
X004206Y008541D01*
X004157Y008493D02*
X012352Y008493D01*
X012352Y008444D02*
X004109Y008444D01*
X004060Y008396D02*
X012352Y008396D01*
X012352Y008347D02*
X004011Y008347D01*
X003962Y008299D02*
X012352Y008299D01*
X012352Y008250D02*
X003914Y008250D01*
X003865Y008202D02*
X012353Y008202D01*
X012353Y008153D02*
X003816Y008153D01*
X003768Y008105D02*
X012353Y008105D01*
X012353Y008056D02*
X003719Y008056D01*
X003670Y008008D02*
X012353Y008008D01*
X012353Y007959D02*
X003621Y007959D01*
X003573Y007911D02*
X012353Y007911D01*
X012354Y007862D02*
X003524Y007862D01*
X003475Y007814D02*
X012354Y007814D01*
X012354Y007765D02*
X003426Y007765D01*
X003378Y007717D02*
X012354Y007717D01*
X012354Y007668D02*
X003329Y007668D01*
X003280Y007620D02*
X012354Y007620D01*
X012354Y007571D02*
X003231Y007571D01*
X003183Y007523D02*
X012355Y007523D01*
X012355Y007474D02*
X003134Y007474D01*
X003085Y007425D02*
X012355Y007425D01*
X012355Y007377D02*
X003036Y007377D01*
X002988Y007328D02*
X012355Y007328D01*
X012355Y007280D02*
X002939Y007280D01*
X002890Y007231D02*
X012355Y007231D01*
X012356Y007183D02*
X002841Y007183D01*
X002793Y007134D02*
X012356Y007134D01*
X012356Y007086D02*
X002744Y007086D01*
X002695Y007037D02*
X012356Y007037D01*
X012356Y006989D02*
X002647Y006989D01*
X002598Y006940D02*
X012356Y006940D01*
X012356Y006892D02*
X002549Y006892D01*
X002500Y006843D02*
X012357Y006843D01*
X012357Y006795D02*
X002452Y006795D01*
X002403Y006746D02*
X012357Y006746D01*
X012357Y006698D02*
X002354Y006698D01*
X002305Y006649D02*
X012357Y006649D01*
X012357Y006601D02*
X002257Y006601D01*
X002208Y006552D02*
X012358Y006552D01*
X012358Y006504D02*
X002159Y006504D01*
X002110Y006455D02*
X012358Y006455D01*
X012358Y006407D02*
X002062Y006407D01*
X002013Y006358D02*
X012358Y006358D01*
X012358Y006310D02*
X001964Y006310D01*
X001915Y006261D02*
X012358Y006261D01*
X006058Y009463D02*
X001066Y009463D01*
X001066Y009414D02*
X005847Y009414D01*
X005635Y009366D02*
X001067Y009366D01*
X001067Y009317D02*
X005424Y009317D01*
X005213Y009269D02*
X001067Y009269D01*
X001067Y009220D02*
X004922Y009220D01*
X004613Y009172D02*
X001067Y009172D01*
X001067Y009123D02*
X004304Y009123D01*
X003996Y009075D02*
X001068Y009075D01*
X001068Y009026D02*
X003581Y009026D01*
X003018Y008978D02*
X001068Y008978D01*
X001068Y008929D02*
X002455Y008929D01*
D23*
X010417Y001268D03*
X010417Y000799D03*
X011181Y000799D03*
X011181Y001268D03*
M02*
