G75*
%MOIN*%
%OFA0B0*%
%FSLAX24Y24*%
%IPPOS*%
%LPD*%
%AMOC8*
5,1,8,0,0,1.08239X$1,22.5*
%
%ADD10C,0.1182*%
%ADD11R,0.0257X0.0186*%
%ADD12R,0.0186X0.0257*%
%ADD13R,0.0552X0.0395*%
%ADD14R,0.0395X0.0552*%
%ADD15R,0.2127X0.2127*%
%ADD16C,0.0198*%
%ADD17R,0.0395X0.0395*%
%ADD18C,0.0580*%
%ADD19R,0.0580X0.0580*%
%ADD20R,0.0434X0.0356*%
%ADD21R,0.0474X0.0690*%
%ADD22C,0.1180*%
%ADD23C,0.0820*%
%ADD24R,0.1580X0.0840*%
%ADD25R,0.0474X0.0671*%
%ADD26C,0.0120*%
%ADD27R,0.0253X0.0391*%
%ADD28C,0.0437*%
D10*
X012855Y012885D03*
D11*
X002808Y002197D03*
X002808Y002028D03*
X002808Y001859D03*
X002808Y001689D03*
X002808Y001520D03*
X002808Y001351D03*
X002808Y001181D03*
X002808Y001012D03*
X001844Y001012D03*
X001844Y001181D03*
X001844Y001351D03*
X001844Y001520D03*
X001844Y001689D03*
X001844Y001859D03*
X001844Y002028D03*
X001844Y002197D03*
D12*
X002072Y002185D03*
X002241Y002185D03*
X002411Y002185D03*
X002580Y002185D03*
X002580Y001024D03*
X002411Y001024D03*
X002241Y001024D03*
X002072Y001024D03*
D13*
X003535Y000838D03*
X003535Y001546D03*
X004280Y001530D03*
X004280Y000821D03*
X005119Y000826D03*
X005119Y001535D03*
X005933Y001572D03*
X005933Y000864D03*
X002984Y003231D03*
X002984Y003940D03*
X001203Y003916D03*
X001203Y003208D03*
X005129Y004745D03*
X005129Y005454D03*
X010625Y005751D03*
X010625Y005043D03*
X013321Y004012D03*
X013321Y003303D03*
D14*
X000675Y000995D03*
X001383Y000995D03*
X001383Y002310D03*
X000674Y002310D03*
X004337Y003559D03*
X005046Y003559D03*
X010288Y004226D03*
X010996Y004226D03*
X010743Y003485D03*
X011451Y003485D03*
X011955Y003981D03*
X012663Y003981D03*
X011173Y001821D03*
X010464Y001821D03*
D15*
X008230Y002991D03*
D16*
X006990Y003089D02*
X006832Y003089D01*
X006832Y002892D02*
X006990Y002892D01*
X006990Y002696D02*
X006832Y002696D01*
X006832Y002499D02*
X006990Y002499D01*
X006990Y002302D02*
X006832Y002302D01*
X006832Y002105D02*
X006990Y002105D01*
X006990Y001908D02*
X006832Y001908D01*
X007148Y001751D02*
X007148Y001593D01*
X007345Y001593D02*
X007345Y001751D01*
X007541Y001751D02*
X007541Y001593D01*
X007738Y001593D02*
X007738Y001751D01*
X007935Y001751D02*
X007935Y001593D01*
X008132Y001593D02*
X008132Y001751D01*
X008329Y001751D02*
X008329Y001593D01*
X008526Y001593D02*
X008526Y001751D01*
X008723Y001751D02*
X008723Y001593D01*
X008919Y001593D02*
X008919Y001751D01*
X009116Y001751D02*
X009116Y001593D01*
X009313Y001593D02*
X009313Y001751D01*
X009470Y001908D02*
X009628Y001908D01*
X009628Y002105D02*
X009470Y002105D01*
X009470Y002302D02*
X009628Y002302D01*
X009628Y002499D02*
X009470Y002499D01*
X009470Y002696D02*
X009628Y002696D01*
X009628Y002892D02*
X009470Y002892D01*
X009470Y003089D02*
X009628Y003089D01*
X009628Y003286D02*
X009470Y003286D01*
X009470Y003483D02*
X009628Y003483D01*
X009628Y003680D02*
X009470Y003680D01*
X009470Y003877D02*
X009628Y003877D01*
X009628Y004074D02*
X009470Y004074D01*
X009313Y004231D02*
X009313Y004389D01*
X009116Y004389D02*
X009116Y004231D01*
X008919Y004231D02*
X008919Y004389D01*
X008723Y004389D02*
X008723Y004231D01*
X008526Y004231D02*
X008526Y004389D01*
X008329Y004389D02*
X008329Y004231D01*
X008132Y004231D02*
X008132Y004389D01*
X007935Y004389D02*
X007935Y004231D01*
X007738Y004231D02*
X007738Y004389D01*
X007541Y004389D02*
X007541Y004231D01*
X007345Y004231D02*
X007345Y004389D01*
X007148Y004389D02*
X007148Y004231D01*
X006990Y004074D02*
X006832Y004074D01*
X006832Y003877D02*
X006990Y003877D01*
X006990Y003680D02*
X006832Y003680D01*
X006832Y003483D02*
X006990Y003483D01*
X006990Y003286D02*
X006832Y003286D01*
D17*
X005743Y004757D03*
X005743Y005348D03*
X006666Y000813D03*
X007257Y000813D03*
D18*
X012142Y001699D02*
X012229Y001206D01*
X012315Y000714D01*
X013031Y002214D02*
X013523Y002127D01*
X013031Y002214D02*
X012539Y002301D01*
D19*
G36*
X013266Y001879D02*
X012696Y001979D01*
X012796Y002549D01*
X013366Y002449D01*
X013266Y001879D01*
G37*
G36*
X011994Y000871D02*
X011894Y001441D01*
X012464Y001541D01*
X012564Y000971D01*
X011994Y000871D01*
G37*
D20*
X013360Y005557D03*
X013360Y006069D03*
D21*
X008020Y005539D03*
X006996Y005539D03*
D22*
X013552Y009714D03*
X006603Y013538D03*
D23*
X004281Y004880D03*
X003281Y004880D03*
X011359Y004969D03*
X012359Y004969D03*
D24*
X011559Y008216D03*
X001855Y010875D03*
D25*
X000635Y011465D03*
X012780Y007626D03*
D26*
X012347Y007594D02*
X003260Y007594D01*
X003142Y007476D02*
X012347Y007476D01*
X012347Y007357D02*
X003023Y007357D01*
X002905Y007239D02*
X012347Y007239D01*
X012347Y007120D02*
X002786Y007120D01*
X002668Y007002D02*
X012347Y007002D01*
X012347Y006883D02*
X002549Y006883D01*
X002431Y006765D02*
X012347Y006765D01*
X012347Y006646D02*
X002312Y006646D01*
X002194Y006528D02*
X012347Y006528D01*
X012347Y006409D02*
X002075Y006409D01*
X001957Y006291D02*
X012347Y006291D01*
X012347Y006248D02*
X012347Y010185D01*
X010970Y010163D01*
X009599Y010045D01*
X008239Y009831D01*
X006898Y009523D01*
X005581Y009122D01*
X004295Y008630D01*
X001914Y006248D01*
X012347Y006248D01*
X012347Y007713D02*
X003379Y007713D01*
X003497Y007831D02*
X012347Y007831D01*
X012347Y007950D02*
X003616Y007950D01*
X003734Y008068D02*
X012347Y008068D01*
X012347Y008187D02*
X003853Y008187D01*
X003971Y008305D02*
X012347Y008305D01*
X012347Y008424D02*
X004090Y008424D01*
X004208Y008542D02*
X012347Y008542D01*
X012347Y008661D02*
X004377Y008661D01*
X004686Y008779D02*
X012347Y008779D01*
X012347Y008898D02*
X004996Y008898D01*
X005305Y009016D02*
X012347Y009016D01*
X012347Y009135D02*
X005624Y009135D01*
X005664Y009372D02*
X001068Y009372D01*
X001068Y009490D02*
X006180Y009490D01*
X006401Y009372D02*
X012347Y009372D01*
X012347Y009490D02*
X006790Y009490D01*
X006652Y009609D02*
X001068Y009609D01*
X001068Y009727D02*
X007041Y009727D01*
X007271Y009609D02*
X012347Y009609D01*
X012347Y009727D02*
X007787Y009727D01*
X007819Y009964D02*
X001068Y009964D01*
X001068Y009846D02*
X007430Y009846D01*
X007834Y009969D02*
X006517Y009568D01*
X005175Y009260D01*
X003816Y009046D01*
X002444Y008928D01*
X001068Y008906D01*
X001068Y012843D01*
X011501Y012843D01*
X009119Y010461D01*
X007834Y009969D01*
X008131Y010083D02*
X001068Y010083D01*
X001068Y010201D02*
X008441Y010201D01*
X008750Y010320D02*
X001068Y010320D01*
X001068Y010438D02*
X009060Y010438D01*
X009215Y010557D02*
X001068Y010557D01*
X001068Y010675D02*
X009333Y010675D01*
X009452Y010794D02*
X001068Y010794D01*
X001068Y010912D02*
X009570Y010912D01*
X009689Y011031D02*
X001068Y011031D01*
X001068Y011149D02*
X009807Y011149D01*
X009926Y011268D02*
X001068Y011268D01*
X001068Y011386D02*
X010044Y011386D01*
X010163Y011505D02*
X001068Y011505D01*
X001068Y011623D02*
X010281Y011623D01*
X010400Y011742D02*
X001068Y011742D01*
X001068Y011860D02*
X010518Y011860D01*
X010637Y011979D02*
X001068Y011979D01*
X001068Y012097D02*
X010755Y012097D01*
X010874Y012216D02*
X001068Y012216D01*
X001068Y012334D02*
X010992Y012334D01*
X011111Y012453D02*
X001068Y012453D01*
X001068Y012571D02*
X011229Y012571D01*
X011348Y012690D02*
X001068Y012690D01*
X001068Y012808D02*
X011466Y012808D01*
X012347Y010083D02*
X010041Y010083D01*
X009087Y009964D02*
X012347Y009964D01*
X012347Y009846D02*
X008333Y009846D01*
X006013Y009253D02*
X012347Y009253D01*
X005135Y009253D02*
X001068Y009253D01*
X001068Y009135D02*
X004381Y009135D01*
X003470Y009016D02*
X001068Y009016D01*
D27*
X010417Y001268D03*
X010417Y000799D03*
X011181Y000799D03*
X011181Y001268D03*
D28*
X011593Y000811D03*
X009979Y002393D03*
X009376Y001281D03*
X009259Y000850D03*
X008613Y000858D03*
X008191Y000854D03*
X007595Y001131D03*
X006699Y001382D03*
X008150Y002727D03*
X006492Y004273D03*
X004635Y005773D03*
X003845Y003559D03*
X002954Y002789D03*
X001883Y002793D03*
X001015Y001526D03*
X001726Y004850D03*
X002235Y004866D03*
X004692Y001929D03*
X008622Y005655D03*
X009854Y004358D03*
X010127Y005028D03*
X011439Y004185D03*
X012419Y003089D03*
X011184Y002806D03*
X013350Y004725D03*
X011852Y010849D03*
M02*
